<svg width="12" height="12" viewBox="0 0 12 12" fill="none" xmlns="http://www.w3.org/2000/svg">
<path d="M4.29689 2.40013C4.38655 2.39987 4.47513 2.41683 4.55613 2.44975C4.63713 2.48268 4.7085 2.53074 4.76498 2.5904L7.6635 5.67582C7.75177 5.76784 7.80002 5.88326 7.80002 6.00237C7.80002 6.12148 7.75177 6.23689 7.6635 6.32891L4.66296 9.41433C4.5611 9.51934 4.41473 9.58538 4.25604 9.59792C4.09736 9.61046 3.93936 9.56847 3.81681 9.48118C3.69426 9.39389 3.61719 9.26847 3.60256 9.13249C3.58793 8.99651 3.63693 8.86112 3.73879 8.75611L6.42128 5.99979L3.82881 3.24348C3.75543 3.168 3.70881 3.07609 3.69448 2.97861C3.68015 2.88114 3.69871 2.78219 3.74795 2.69347C3.79719 2.60475 3.87506 2.52997 3.97234 2.47799C4.06963 2.426 4.18225 2.39899 4.29689 2.40013Z" fill="#53B176"/>
</svg>
