<svg width="25" height="25" viewBox="0 0 25 25" fill="none" xmlns="http://www.w3.org/2000/svg">
<path d="M23.4512 12.5L24.8328 10.1121C24.9989 9.82482 25.044 9.48334 24.9584 9.16276C24.8727 8.84218 24.6632 8.56873 24.376 8.40256L21.9856 7.0209V4.26759C21.9856 3.93567 21.8538 3.61735 21.6191 3.38265C21.3844 3.14794 21.0661 3.01609 20.7341 3.01609H17.9821L16.6017 0.626969C16.435 0.34027 16.1621 0.130754 15.842 0.0437682C15.6833 0.000736373 15.5176 -0.0103596 15.3545 0.0111235C15.1915 0.0326065 15.0343 0.0862414 14.8921 0.168919L12.5018 1.55058L10.1114 0.167667C9.82394 0.00171478 9.48235 -0.0432575 9.16175 0.042643C8.84114 0.128544 8.5678 0.338281 8.40183 0.625718L7.02017 3.01609H4.26812C3.9362 3.01609 3.61787 3.14794 3.38317 3.38265C3.14847 3.61735 3.01661 3.93567 3.01661 4.26759V7.01965L0.62624 8.40131C0.483609 8.48335 0.358595 8.59277 0.258379 8.72327C0.158164 8.85378 0.0847227 9.0028 0.0422752 9.16177C-0.000172194 9.32075 -0.0107892 9.48654 0.0110341 9.64963C0.0328574 9.81272 0.0866908 9.96989 0.169442 10.1121L1.5511 12.5L0.169442 14.8879C0.00422915 15.1754 -0.0405957 15.5166 0.0447399 15.8371C0.130075 16.1576 0.33865 16.4313 0.624989 16.5987L3.01536 17.9803V20.7324C3.01536 21.0643 3.14721 21.3826 3.38192 21.6173C3.61662 21.852 3.93494 21.9839 4.26686 21.9839H7.02017L8.40183 24.3742C8.51263 24.5637 8.67083 24.7209 8.86086 24.8307C9.05089 24.9404 9.26621 24.9987 9.48563 25C9.70339 25 9.9199 24.9424 10.1126 24.831L12.5005 23.4494L14.8909 24.831C15.1782 24.9968 15.5196 25.0417 15.8401 24.9561C16.1606 24.8705 16.434 24.6612 16.6004 24.3742L17.9808 21.9839H20.7329C21.0648 21.9839 21.3831 21.852 21.6178 21.6173C21.8525 21.3826 21.9844 21.0643 21.9844 20.7324V17.9803L24.3748 16.5987C24.5172 16.5164 24.6419 16.4068 24.742 16.2763C24.842 16.1458 24.9153 15.9968 24.9577 15.8379C25.0002 15.679 25.0108 15.5134 24.9892 15.3503C24.9676 15.1873 24.914 15.0302 24.8316 14.8879L23.4512 12.5ZM9.37175 6.22995C9.86979 6.23012 10.3474 6.42812 10.6994 6.78041C11.0515 7.1327 11.2492 7.61041 11.249 8.10846C11.2488 8.6065 11.0508 9.08408 10.6985 9.43614C10.3463 9.78819 9.86854 9.98588 9.37049 9.98571C8.87245 9.98555 8.39487 9.78754 8.04282 9.43525C7.69076 9.08296 7.49307 8.60525 7.49324 8.10721C7.49341 7.60916 7.69141 7.13158 8.0437 6.77953C8.39599 6.42747 8.8737 6.22978 9.37175 6.22995ZM9.7472 18.2444L7.74479 16.7438L15.2538 6.7318L17.2562 8.23236L9.7472 18.2444ZM15.6293 18.745C15.3827 18.7449 15.1385 18.6962 14.9107 18.6018C14.6829 18.5074 14.4759 18.369 14.3016 18.1945C14.1273 18.0201 13.989 17.813 13.8947 17.5852C13.8004 17.3573 13.7519 17.1131 13.752 16.8665C13.7521 16.6199 13.8007 16.3757 13.8952 16.1479C13.9896 15.9201 14.128 15.7131 14.3025 15.5388C14.4769 15.3645 14.684 15.2262 14.9118 15.1319C15.1397 15.0376 15.3839 14.9891 15.6305 14.9892C16.1286 14.9894 16.6061 15.1874 16.9582 15.5397C17.3102 15.892 17.5079 16.3697 17.5078 16.8677C17.5076 17.3658 17.3096 17.8434 16.9573 18.1954C16.605 18.5475 16.1273 18.7451 15.6293 18.745Z" fill="#171726"/>
</svg>
