<svg width="9" height="6" viewBox="0 0 9 6" fill="none" xmlns="http://www.w3.org/2000/svg">
<path d="M8.99995 1.3711C9.00028 1.48316 8.97909 1.59389 8.93793 1.69514C8.89677 1.79639 8.8367 1.8856 8.76212 1.9562L4.90534 5.57935C4.79032 5.68968 4.64605 5.75 4.49717 5.75C4.34828 5.75 4.20401 5.68968 4.08899 5.57935L0.232212 1.82868C0.100942 1.70135 0.018391 1.51839 0.0027198 1.32003C-0.0129514 1.12167 0.0395406 0.924178 0.148648 0.770988C0.257755 0.617798 0.414541 0.521462 0.584513 0.503174C0.754485 0.484887 0.923721 0.546143 1.05499 0.67347L4.50038 4.02657L7.94577 0.785991C8.04012 0.694262 8.15501 0.635994 8.27686 0.618081C8.3987 0.600168 8.52239 0.62336 8.63329 0.684913C8.74419 0.746465 8.83766 0.843803 8.90264 0.965407C8.96762 1.08701 9.00139 1.22779 8.99995 1.3711Z" fill="#171726"/>
</svg>
