<svg width="25" height="25" viewBox="0 0 25 25" fill="none" xmlns="http://www.w3.org/2000/svg">
<rect width="25" height="25" rx="12.5" fill="#53B176"/>
<g clip-path="url(#clip0_343_6439)">
<path d="M19.9375 16.75C19.9375 17.0318 19.8256 17.302 19.6263 17.5013C19.427 17.7006 19.1568 17.8125 18.875 17.8125H6.125C5.84321 17.8125 5.57296 17.7006 5.3737 17.5013C5.17444 17.302 5.0625 17.0318 5.0625 16.75V10.375C5.0625 10.0932 5.17444 9.82296 5.3737 9.6237C5.57296 9.42444 5.84321 9.3125 6.125 9.3125H7.37025C8.21519 9.31204 9.02538 8.97612 9.62275 8.37856L10.5046 7.49881C10.7033 7.30006 10.9727 7.18812 11.2537 7.1875H13.7442C14.026 7.18756 14.2962 7.29954 14.4954 7.49881L15.3751 8.37856C15.6712 8.6747 16.0227 8.9096 16.4095 9.06985C16.7964 9.2301 17.211 9.31255 17.6298 9.3125H18.875C19.1568 9.3125 19.427 9.42444 19.6263 9.6237C19.8256 9.82296 19.9375 10.0932 19.9375 10.375V16.75ZM6.125 8.25C5.56141 8.25 5.02091 8.47388 4.6224 8.8724C4.22388 9.27091 4 9.81141 4 10.375V16.75C4 17.3136 4.22388 17.8541 4.6224 18.2526C5.02091 18.6511 5.56141 18.875 6.125 18.875H18.875C19.4386 18.875 19.9791 18.6511 20.3776 18.2526C20.7761 17.8541 21 17.3136 21 16.75V10.375C21 9.81141 20.7761 9.27091 20.3776 8.8724C19.9791 8.47388 19.4386 8.25 18.875 8.25H17.6298C17.0662 8.24988 16.5258 8.02592 16.1274 7.62738L15.2476 6.74762C14.8492 6.34908 14.3088 6.12512 13.7452 6.125H11.2548C10.6912 6.12512 10.1508 6.34908 9.75238 6.74762L8.87262 7.62738C8.4742 8.02592 7.93379 8.24988 7.37025 8.25H6.125Z" fill="white"/>
<path d="M12.5 15.6875C11.7955 15.6875 11.1199 15.4076 10.6217 14.9095C10.1236 14.4114 9.84375 13.7357 9.84375 13.0312C9.84375 12.3268 10.1236 11.6511 10.6217 11.153C11.1199 10.6549 11.7955 10.375 12.5 10.375C13.2045 10.375 13.8801 10.6549 14.3783 11.153C14.8764 11.6511 15.1562 12.3268 15.1562 13.0312C15.1562 13.7357 14.8764 14.4114 14.3783 14.9095C13.8801 15.4076 13.2045 15.6875 12.5 15.6875ZM12.5 16.75C13.4863 16.75 14.4322 16.3582 15.1296 15.6608C15.827 14.9634 16.2188 14.0175 16.2188 13.0312C16.2188 12.045 15.827 11.0991 15.1296 10.4017C14.4322 9.7043 13.4863 9.3125 12.5 9.3125C11.5137 9.3125 10.5678 9.7043 9.87045 10.4017C9.17305 11.0991 8.78125 12.045 8.78125 13.0312C8.78125 14.0175 9.17305 14.9634 9.87045 15.6608C10.5678 16.3582 11.5137 16.75 12.5 16.75ZM7.1875 10.9062C7.1875 11.0471 7.13153 11.1823 7.0319 11.2819C6.93227 11.3815 6.79715 11.4375 6.65625 11.4375C6.51535 11.4375 6.38023 11.3815 6.2806 11.2819C6.18097 11.1823 6.125 11.0471 6.125 10.9062C6.125 10.7654 6.18097 10.6302 6.2806 10.5306C6.38023 10.431 6.51535 10.375 6.65625 10.375C6.79715 10.375 6.93227 10.431 7.0319 10.5306C7.13153 10.6302 7.1875 10.7654 7.1875 10.9062Z" fill="white"/>
</g>
<defs>
<clipPath id="clip0_343_6439">
<rect width="17" height="17" fill="white" transform="translate(4 4)"/>
</clipPath>
</defs>
</svg>
