<svg width="39" height="38" viewBox="0 0 39 38" fill="none" xmlns="http://www.w3.org/2000/svg">
<ellipse cx="19.2069" cy="19" rx="19.1092" ry="19" fill="#F0F8F2"/>
<g clip-path="url(#clip0_343_8593)">
<path d="M26.75 12.25C27.0834 12.25 27.4032 12.3817 27.639 12.6161C27.8747 12.8505 28.0072 13.1685 28.0072 13.5V23.5C28.0072 23.8315 27.8747 24.1495 27.639 24.3839C27.4032 24.6183 27.0834 24.75 26.75 24.75H11.6638C11.3304 24.75 11.0106 24.6183 10.7748 24.3839C10.5391 24.1495 10.4066 23.8315 10.4066 23.5V13.5C10.4066 13.1685 10.5391 12.8505 10.7748 12.6161C11.0106 12.3817 11.3304 12.25 11.6638 12.25H26.75ZM11.6638 11C10.9969 11 10.3574 11.2634 9.88586 11.7322C9.41432 12.2011 9.14941 12.837 9.14941 13.5V23.5C9.14941 24.163 9.41432 24.7989 9.88586 25.2678C10.3574 25.7366 10.9969 26 11.6638 26H26.75C27.4168 26 28.0564 25.7366 28.5279 25.2678C28.9995 24.7989 29.2644 24.163 29.2644 23.5V13.5C29.2644 12.837 28.9995 12.2011 28.5279 11.7322C28.0564 11.2634 27.4168 11 26.75 11H11.6638Z" fill="#53B176"/>
<path d="M11.6641 15.375C11.6641 15.2092 11.7303 15.0503 11.8482 14.9331C11.9661 14.8158 12.1259 14.75 12.2927 14.75H14.807C14.9737 14.75 15.1336 14.8158 15.2515 14.9331C15.3694 15.0503 15.4356 15.2092 15.4356 15.375V16.625C15.4356 16.7908 15.3694 16.9497 15.2515 17.0669C15.1336 17.1842 14.9737 17.25 14.807 17.25H12.2927C12.1259 17.25 11.9661 17.1842 11.8482 17.0669C11.7303 16.9497 11.6641 16.7908 11.6641 16.625V15.375ZM11.6641 19.125C11.6641 18.9592 11.7303 18.8003 11.8482 18.6831C11.9661 18.5658 12.1259 18.5 12.2927 18.5H18.5786C18.7453 18.5 18.9052 18.5658 19.0231 18.6831C19.1409 18.8003 19.2072 18.9592 19.2072 19.125C19.2072 19.2908 19.1409 19.4497 19.0231 19.5669C18.9052 19.6842 18.7453 19.75 18.5786 19.75H12.2927C12.1259 19.75 11.9661 19.6842 11.8482 19.5669C11.7303 19.4497 11.6641 19.2908 11.6641 19.125ZM11.6641 21.625C11.6641 21.4592 11.7303 21.3003 11.8482 21.1831C11.9661 21.0658 12.1259 21 12.2927 21H13.5498C13.7166 21 13.8764 21.0658 13.9943 21.1831C14.1122 21.3003 14.1784 21.4592 14.1784 21.625C14.1784 21.7908 14.1122 21.9497 13.9943 22.0669C13.8764 22.1842 13.7166 22.25 13.5498 22.25H12.2927C12.1259 22.25 11.9661 22.1842 11.8482 22.0669C11.7303 21.9497 11.6641 21.7908 11.6641 21.625ZM15.4356 21.625C15.4356 21.4592 15.5018 21.3003 15.6197 21.1831C15.7376 21.0658 15.8975 21 16.0642 21H17.3214C17.4881 21 17.648 21.0658 17.7659 21.1831C17.8838 21.3003 17.95 21.4592 17.95 21.625C17.95 21.7908 17.8838 21.9497 17.7659 22.0669C17.648 22.1842 17.4881 22.25 17.3214 22.25H16.0642C15.8975 22.25 15.7376 22.1842 15.6197 22.0669C15.5018 21.9497 15.4356 21.7908 15.4356 21.625ZM19.2072 21.625C19.2072 21.4592 19.2734 21.3003 19.3913 21.1831C19.5092 21.0658 19.669 21 19.8358 21H21.0929C21.2597 21 21.4195 21.0658 21.5374 21.1831C21.6553 21.3003 21.7215 21.4592 21.7215 21.625C21.7215 21.7908 21.6553 21.9497 21.5374 22.0669C21.4195 22.1842 21.2597 22.25 21.0929 22.25H19.8358C19.669 22.25 19.5092 22.1842 19.3913 22.0669C19.2734 21.9497 19.2072 21.7908 19.2072 21.625ZM22.9787 21.625C22.9787 21.4592 23.0449 21.3003 23.1628 21.1831C23.2807 21.0658 23.4406 21 23.6073 21H24.8645C25.0312 21 25.1911 21.0658 25.309 21.1831C25.4269 21.3003 25.4931 21.4592 25.4931 21.625C25.4931 21.7908 25.4269 21.9497 25.309 22.0669C25.1911 22.1842 25.0312 22.25 24.8645 22.25H23.6073C23.4406 22.25 23.2807 22.1842 23.1628 22.0669C23.0449 21.9497 22.9787 21.7908 22.9787 21.625Z" fill="#53B176"/>
</g>
<defs>
<clipPath id="clip0_343_8593">
<rect width="20.1149" height="20" fill="white" transform="translate(9.14941 9)"/>
</clipPath>
</defs>
</svg>
