<svg width="20" height="20" viewBox="0 0 20 20" fill="none" xmlns="http://www.w3.org/2000/svg">
<path d="M15.3333 15.3333C15.7754 15.3333 16.1993 15.5089 16.5118 15.8215C16.8244 16.134 17 16.558 17 17C17 17.442 16.8244 17.866 16.5118 18.1785C16.1993 18.4911 15.7754 18.6667 15.3333 18.6667C14.8913 18.6667 14.4674 18.4911 14.1548 18.1785C13.8423 17.866 13.6667 17.442 13.6667 17C13.6667 16.075 14.4083 15.3333 15.3333 15.3333ZM2 2H4.725L5.50833 3.66667H17.8333C18.0543 3.66667 18.2663 3.75446 18.4226 3.91074C18.5789 4.06702 18.6667 4.27899 18.6667 4.5C18.6667 4.64167 18.625 4.78333 18.5667 4.91667L15.5833 10.3083C15.3 10.8167 14.75 11.1667 14.125 11.1667H7.91667L7.16667 12.525L7.14167 12.625C7.14167 12.6803 7.16362 12.7332 7.20269 12.7723C7.24176 12.8114 7.29475 12.8333 7.35 12.8333H17V14.5H7C6.55797 14.5 6.13405 14.3244 5.82149 14.0118C5.50893 13.6993 5.33333 13.2754 5.33333 12.8333C5.33333 12.5417 5.40833 12.2667 5.53333 12.0333L6.66667 9.99167L3.66667 3.66667H2V2ZM7 15.3333C7.44203 15.3333 7.86595 15.5089 8.17851 15.8215C8.49107 16.134 8.66667 16.558 8.66667 17C8.66667 17.442 8.49107 17.866 8.17851 18.1785C7.86595 18.4911 7.44203 18.6667 7 18.6667C6.55797 18.6667 6.13405 18.4911 5.82149 18.1785C5.50893 17.866 5.33333 17.442 5.33333 17C5.33333 16.075 6.075 15.3333 7 15.3333Z" fill="#53B176"/>
</svg>
