<svg width="17" height="17" viewBox="0 0 17 17" fill="none" xmlns="http://www.w3.org/2000/svg">
<path d="M13.3333 13.3333C13.7754 13.3333 14.1993 13.5089 14.5118 13.8215C14.8244 14.1341 15 14.558 15 15C15 15.442 14.8244 15.866 14.5118 16.1785C14.1993 16.4911 13.7754 16.6667 13.3333 16.6667C12.8913 16.6667 12.4674 16.4911 12.1548 16.1785C11.8423 15.866 11.6667 15.442 11.6667 15C11.6667 14.075 12.4083 13.3333 13.3333 13.3333ZM0 0H2.725L3.50833 1.66667H15.8333C16.0543 1.66667 16.2663 1.75446 16.4226 1.91074C16.5789 2.06702 16.6667 2.27899 16.6667 2.5C16.6667 2.64167 16.625 2.78333 16.5667 2.91667L13.5833 8.30833C13.3 8.81667 12.75 9.16667 12.125 9.16667H5.91667L5.16667 10.525L5.14167 10.625C5.14167 10.6803 5.16362 10.7332 5.20269 10.7723C5.24176 10.8114 5.29475 10.8333 5.35 10.8333H15V12.5H5C4.55797 12.5 4.13405 12.3244 3.82149 12.0118C3.50893 11.6993 3.33333 11.2754 3.33333 10.8333C3.33333 10.5417 3.40833 10.2667 3.53333 10.0333L4.66667 7.99167L1.66667 1.66667H0V0ZM5 13.3333C5.44203 13.3333 5.86595 13.5089 6.17851 13.8215C6.49107 14.1341 6.66667 14.558 6.66667 15C6.66667 15.442 6.49107 15.866 6.17851 16.1785C5.86595 16.4911 5.44203 16.6667 5 16.6667C4.55797 16.6667 4.13405 16.4911 3.82149 16.1785C3.50893 15.866 3.33333 15.442 3.33333 15C3.33333 14.075 4.075 13.3333 5 13.3333ZM12.5 7.5L14.8167 3.33333H4.28333L6.25 7.5H12.5Z" fill="#171726"/>
</svg>
