<svg width="39" height="38" viewBox="0 0 39 38" fill="none" xmlns="http://www.w3.org/2000/svg">
<ellipse cx="19.2127" cy="19" rx="19.1092" ry="19" fill="#F0F8F2"/>
<path d="M22.5652 20.1111L19.2127 23.4444L22.5652 20.1111ZM19.2127 23.4444L15.8603 20.1111L19.2127 23.4444ZM19.2127 23.4444V14.5556V23.4444ZM19.2127 29C17.892 29 16.5841 28.7413 15.3639 28.2388C14.1437 27.7363 13.035 26.9997 12.101 26.0711C11.1671 25.1425 10.4263 24.0401 9.92085 22.8268C9.41542 21.6136 9.15527 20.3132 9.15527 19C9.15527 17.6868 9.41542 16.3864 9.92085 15.1732C10.4263 13.9599 11.1671 12.8575 12.101 11.9289C13.035 11.0003 14.1437 10.2638 15.3639 9.7612C16.5841 9.25866 17.892 9 19.2127 9C21.8802 9 24.4383 10.0536 26.3245 11.9289C28.2106 13.8043 29.2702 16.3478 29.2702 19C29.2702 21.6522 28.2106 24.1957 26.3245 26.0711C24.4383 27.9464 21.8802 29 19.2127 29Z" stroke="#53B176" stroke-width="2" stroke-linecap="round" stroke-linejoin="round"/>
</svg>
