<svg width="18" height="18" viewBox="0 0 18 18" fill="none" xmlns="http://www.w3.org/2000/svg">
<path fill-rule="evenodd" clip-rule="evenodd" d="M0 8.83067C0 6.48863 0.930371 4.24251 2.58644 2.58644C4.24251 0.930371 6.48863 0 8.83067 0C11.1727 0 13.4188 0.930371 15.0749 2.58644C16.731 4.24251 17.6613 6.48863 17.6613 8.83067C17.6613 11.1727 16.731 13.4188 15.0749 15.0749C13.4188 16.731 11.1727 17.6613 8.83067 17.6613C6.48863 17.6613 4.24251 16.731 2.58644 15.0749C0.930371 13.4188 0 11.1727 0 8.83067ZM8.83067 1.26667C6.82457 1.26667 4.90064 2.06359 3.48211 3.48211C2.06359 4.90064 1.26667 6.82457 1.26667 8.83067C1.26667 10.8368 2.06359 12.7607 3.48211 14.1792C4.90064 15.5977 6.82457 16.3947 8.83067 16.3947C10.8368 16.3947 12.7607 15.5977 14.1792 14.1792C15.5977 12.7607 16.3947 10.8368 16.3947 8.83067C16.3947 6.82457 15.5977 4.90064 14.1792 3.48211C12.7607 2.06359 10.8368 1.26667 8.83067 1.26667ZM11.9693 5.69333C12.0943 5.81835 12.1645 5.98789 12.1645 6.16467C12.1645 6.34144 12.0943 6.51098 11.9693 6.636L9.77333 8.83067L11.9693 11.0253C12.0945 11.1505 12.1648 11.3203 12.1648 11.4973C12.1648 11.6744 12.0945 11.8442 11.9693 11.9693C11.8442 12.0945 11.6744 12.1648 11.4973 12.1648C11.3203 12.1648 11.1505 12.0945 11.0253 11.9693L8.83067 9.77333L6.636 11.9693C6.57402 12.0313 6.50043 12.0805 6.41944 12.114C6.33846 12.1476 6.25166 12.1648 6.164 12.1648C6.07634 12.1648 5.98954 12.1476 5.90856 12.114C5.82757 12.0805 5.75398 12.0313 5.692 11.9693C5.63002 11.9073 5.58085 11.8338 5.5473 11.7528C5.51376 11.6718 5.49649 11.585 5.49649 11.4973C5.49649 11.4097 5.51376 11.3229 5.5473 11.2419C5.58085 11.1609 5.63002 11.0873 5.692 11.0253L7.888 8.83067L5.692 6.636C5.56682 6.51082 5.49649 6.34103 5.49649 6.164C5.49649 5.98697 5.56682 5.81718 5.692 5.692C5.81718 5.56682 5.98697 5.49649 6.164 5.49649C6.34103 5.49649 6.51082 5.56682 6.636 5.692L8.83067 7.888L11.0253 5.692C11.0873 5.62992 11.1608 5.58066 11.2418 5.54705C11.3228 5.51344 11.4096 5.49614 11.4973 5.49614C11.585 5.49614 11.6719 5.51344 11.7528 5.54705C11.8338 5.58066 11.9074 5.62992 11.9693 5.692V5.69333Z" fill="#171726"/>
</svg>
