<svg width="39" height="38" viewBox="0 0 39 38" fill="none" xmlns="http://www.w3.org/2000/svg">
<ellipse cx="19.2126" cy="19" rx="19.1092" ry="19" transform="rotate(-180 19.2126 19)" fill="#FBE9E5"/>
<path d="M15.8601 17.8889L19.2125 14.5556L15.8601 17.8889ZM19.2125 14.5556L22.565 17.8889L19.2125 14.5556ZM19.2125 14.5556L19.2125 23.4444L19.2125 14.5556ZM19.2125 9C20.5333 9 21.8411 9.25866 23.0614 9.7612C24.2816 10.2637 25.3903 11.0003 26.3243 11.9289C27.2582 12.8575 27.999 13.9599 28.5044 15.1732C29.0099 16.3864 29.27 17.6868 29.27 19C29.27 20.3132 29.0099 21.6136 28.5044 22.8268C27.999 24.0401 27.2582 25.1425 26.3243 26.0711C25.3903 26.9997 24.2816 27.7362 23.0614 28.2388C21.8411 28.7413 20.5333 29 19.2125 29C16.5451 29 13.987 27.9464 12.1008 26.0711C10.2147 24.1957 9.15508 21.6522 9.15508 19C9.15508 16.3478 10.2147 13.8043 12.1008 11.9289C13.987 10.0536 16.5451 9 19.2125 9Z" stroke="#D83734" stroke-width="2" stroke-linecap="round" stroke-linejoin="round"/>
</svg>
