<svg width="12" height="7" viewBox="0 0 12 7" fill="none" xmlns="http://www.w3.org/2000/svg">
<path d="M11.9999 1.16146C12.0004 1.31088 11.9721 1.45852 11.9172 1.59352C11.8624 1.72853 11.7823 1.84747 11.6828 1.9416L6.54046 6.77247C6.3871 6.91958 6.19474 7 5.99622 7C5.7977 7 5.60534 6.91958 5.45199 6.77247L0.309615 1.77157C0.134589 1.6018 0.0245213 1.35785 0.0036264 1.09337C-0.0172685 0.828898 0.0527208 0.56557 0.198197 0.361317C0.343674 0.157063 0.552721 0.0286159 0.779351 0.0042319C1.00598 -0.0201521 1.23163 0.0615239 1.40665 0.231293L6.00051 4.7021L10.5944 0.38132C10.7202 0.259015 10.8734 0.181324 11.0358 0.15744C11.1983 0.133556 11.3632 0.164479 11.5111 0.246549C11.6589 0.32862 11.7835 0.458403 11.8702 0.620543C11.9568 0.782682 12.0019 0.970392 11.9999 1.16146Z" fill="#171726"/>
</svg>
