<svg width="10" height="10" viewBox="0 0 10 10" fill="none" xmlns="http://www.w3.org/2000/svg">
<path d="M4.78107 0.777632C4.9144 0.407456 5.41898 0.407456 5.55273 0.777632L6.41524 3.29254C6.47565 3.45921 6.6294 3.57018 6.80107 3.57018H8.92065C9.31232 3.57018 9.48315 4.08333 9.17523 4.33465L7.6669 5.76316C7.59934 5.81783 7.54996 5.89363 7.52586 5.97968C7.50175 6.06572 7.50416 6.15759 7.53273 6.24211L8.08357 8.69956C8.21773 9.0943 7.78357 9.43333 7.45524 9.19035L5.40648 7.82193C5.33632 7.77003 5.25266 7.74217 5.1669 7.74217C5.08115 7.74217 4.99748 7.77003 4.92732 7.82193L2.87857 9.19035C2.55065 9.43333 2.11607 9.09386 2.25024 8.69956L2.80107 6.24211C2.82964 6.15759 2.83205 6.06572 2.80795 5.97968C2.78384 5.89363 2.73447 5.81783 2.6669 5.76316L1.15857 4.33465C0.850235 4.08333 1.0219 3.57018 1.41274 3.57018H3.53232C3.61577 3.57047 3.69735 3.54408 3.76624 3.49451C3.83514 3.44493 3.88811 3.3745 3.91815 3.29254L4.78065 0.777632H4.78107Z" fill="#F2D01C" stroke="#F2D01C" stroke-linecap="round" stroke-linejoin="round"/>
</svg>
