<svg width="29" height="22" viewBox="0 0 29 22" fill="none" xmlns="http://www.w3.org/2000/svg">
<path fill-rule="evenodd" clip-rule="evenodd" d="M8.78589 0.5C9.18371 0.5 9.56524 0.658035 9.84655 0.93934C10.1279 1.22064 10.2859 1.60217 10.2859 2V5C10.2859 5.39782 10.1279 5.77935 9.84655 6.06066C9.56524 6.34196 9.18371 6.5 8.78589 6.5C8.38806 6.5 8.00653 6.34196 7.72523 6.06066C7.44392 5.77935 7.28589 5.39782 7.28589 5V2C7.28589 1.60217 7.44392 1.22064 7.72523 0.93934C8.00653 0.658035 8.38806 0.5 8.78589 0.5V0.5Z" stroke="#171726" stroke-linecap="round" stroke-linejoin="round"/>
<path d="M27.3574 3.35718H11.6431" stroke="#171726" stroke-width="1.5" stroke-linecap="round" stroke-linejoin="round"/>
<path d="M5.78596 3.35718H1.50024" stroke="#171726" stroke-width="1.5" stroke-linecap="round" stroke-linejoin="round"/>
<path fill-rule="evenodd" clip-rule="evenodd" d="M8.78589 14.7856C9.18371 14.7856 9.56524 14.9437 9.84655 15.225C10.1279 15.5063 10.2859 15.8878 10.2859 16.2856V19.2856C10.2859 19.6835 10.1279 20.065 9.84655 20.3463C9.56524 20.6276 9.18371 20.7856 8.78589 20.7856C8.38806 20.7856 8.00653 20.6276 7.72523 20.3463C7.44392 20.065 7.28589 19.6835 7.28589 19.2856V16.2856C7.28589 15.8878 7.44392 15.5063 7.72523 15.225C8.00653 14.9437 8.38806 14.7856 8.78589 14.7856Z" stroke="#171726" stroke-linecap="round" stroke-linejoin="round"/>
<path d="M27.3574 17.6428H11.6431" stroke="#171726" stroke-width="1.5" stroke-linecap="round" stroke-linejoin="round"/>
<path d="M5.78596 17.6428H1.50024" stroke="#171726" stroke-width="1.5" stroke-linecap="round" stroke-linejoin="round"/>
<path fill-rule="evenodd" clip-rule="evenodd" d="M20.2144 7.64307C20.6122 7.64307 20.9937 7.8011 21.275 8.08241C21.5563 8.36371 21.7144 8.74524 21.7144 9.14307V12.1431C21.7144 12.5409 21.5563 12.9224 21.275 13.2037C20.9937 13.485 20.6122 13.6431 20.2144 13.6431C19.8165 13.6431 19.435 13.485 19.1537 13.2037C18.8724 12.9224 18.7144 12.5409 18.7144 12.1431V9.14307C18.7144 8.74524 18.8724 8.36371 19.1537 8.08241C19.435 7.8011 19.8165 7.64307 20.2144 7.64307V7.64307Z" stroke="#171726" stroke-linecap="round" stroke-linejoin="round"/>
<path d="M17.2145 10.5H1.50024" stroke="#171726" stroke-width="1.5" stroke-linecap="round" stroke-linejoin="round"/>
<path d="M27.3575 10.5H23.0718" stroke="#171726" stroke-width="1.5" stroke-linecap="round" stroke-linejoin="round"/>
</svg>
