<svg width="20" height="20" viewBox="0 0 20 20" fill="none" xmlns="http://www.w3.org/2000/svg">
<path d="M3.80215 6.63422C3.80149 6.88874 3.99523 7.10743 4.25427 7.10743H5.16371C5.32597 7.48419 5.65367 8.15373 6.15877 8.81581C5.75102 9.21215 5.26258 9.53374 4.70053 9.6598L4.69995 9.65994C4.45008 9.71756 4.29702 9.96964 4.35093 10.2219C4.39652 10.4429 4.58793 10.5962 4.80167 10.5962C4.83447 10.5962 4.86617 10.5915 4.88988 10.5879L4.89204 10.5876L4.89208 10.5879L4.89925 10.5863C5.65109 10.4172 6.2744 10.0064 6.78204 9.51672C7.28888 10.0023 7.91086 10.4125 8.66118 10.5855C8.69934 10.5963 8.73587 10.5962 8.75858 10.5962L8.76191 10.5962C8.97713 10.5962 9.16304 10.4415 9.21232 10.2234L9.21255 10.2223C9.26672 9.96997 9.1137 9.71738 8.86354 9.65992L8.86291 9.65978C8.29749 9.53373 7.81234 9.21214 7.40479 8.8158C7.91002 8.15333 8.23486 7.48629 8.39957 7.10743H9.3093C9.56586 7.10743 9.76925 6.89138 9.76925 6.63435C9.76925 6.37733 9.56586 6.16127 9.3093 6.16127H7.24566V5.5187C7.24566 5.26168 7.04226 5.04562 6.7857 5.04562C6.52915 5.04562 6.32575 5.26168 6.32575 5.5187V6.16127H4.2621C4.00559 6.16127 3.80222 6.37726 3.80215 6.63422ZM3.80215 6.63422C3.80215 6.63417 3.80215 6.63411 3.80215 6.63406L3.90215 6.63435H3.80215C3.80215 6.63431 3.80215 6.63427 3.80215 6.63422ZM13.498 14.3109L13.4985 14.3097L13.9089 13.2903H15.6854L16.0957 14.3097L16.0958 14.31C16.1687 14.4894 16.3384 14.5999 16.5197 14.5999C16.5826 14.5999 16.6421 14.5848 16.697 14.5631L16.697 14.5631L16.6994 14.5621C16.9359 14.4611 17.0418 14.1821 16.9474 13.9444L16.9472 13.9438L16.4203 12.6398C16.419 12.6356 16.4172 12.631 16.4149 12.6262C16.413 12.6222 16.4106 12.6179 16.4076 12.6134L15.2191 9.67138L15.2187 9.67036C15.1465 9.49726 14.982 9.3813 14.7952 9.3813C14.6102 9.3813 14.4402 9.49576 14.3712 9.67187C14.3711 9.67206 14.371 9.67225 14.3709 9.67245L12.6469 13.9438L12.6469 13.9438L12.6464 13.945C12.553 14.1854 12.6578 14.4648 12.8949 14.5658C13.1327 14.6674 13.3987 14.5492 13.498 14.3109ZM1.82012 4.77608V4.77607C1.82012 4.25696 2.22512 3.84254 2.71728 3.84254H10.8351C11.3274 3.84254 11.7323 4.25707 11.7323 4.77607V10.8657C11.7323 11.3848 11.3273 11.7992 10.8351 11.7992H5.3201C5.19394 11.7992 5.07953 11.8526 4.99451 11.936L4.99449 11.936L4.9926 11.938L3.78578 13.1888V12.2723C3.78578 12.0152 3.58238 11.7992 3.32583 11.7992H2.71381C2.22523 11.7992 1.81997 11.3849 1.81997 10.8655L1.82012 4.77608ZM7.36977 7.10743C7.2259 7.3929 7.02788 7.73998 6.7778 8.08843C6.52606 7.73804 6.32996 7.39113 6.18637 7.10743H7.36977ZM14.2883 12.3478L14.7954 11.0918L15.3024 12.3479L14.2883 12.3478ZM2.7172 12.7456H2.86928V14.3397C2.86928 14.5261 2.97692 14.7025 3.15376 14.7752C3.20703 14.798 3.26687 14.8128 3.32923 14.8128C3.44897 14.8128 3.56882 14.7651 3.65674 14.674L5.51364 12.7494L8.82002 12.7492V14.6268C8.82002 15.5555 9.54911 16.3164 10.4537 16.3164H15.0264L16.6133 17.9612C16.7012 18.0523 16.821 18.1 16.9408 18.1C16.9969 18.1 17.0593 18.0912 17.1198 18.0609C17.2896 17.9878 17.4007 17.8136 17.4007 17.6269V16.3164H17.4663C18.3709 16.3164 19.1 15.5555 19.1 14.6268V9.36557C19.1 8.43685 18.3709 7.67593 17.4663 7.67593L12.6561 7.67624V4.78003C12.6561 3.74685 11.8443 2.90017 10.8389 2.90017L2.71761 2.90001L2.71722 3.00001L2.71722 2.90001H2.71741C1.7117 2.89615 0.9 3.74326 0.9 4.77627V10.8659C0.9 11.8989 1.7118 12.7456 2.7172 12.7456ZM17.4667 8.61861C17.8582 8.61861 18.1803 8.94727 18.1803 9.36193V14.6231C18.1803 15.0378 17.8582 15.3665 17.4667 15.3665H16.9411C16.6846 15.3665 16.4812 15.5825 16.4812 15.8395V16.4762L15.5444 15.5052C15.4568 15.4145 15.3408 15.3665 15.2169 15.3665L10.454 15.3663C10.0625 15.3663 9.74038 15.0376 9.74038 14.623V12.7454H10.8391C11.8445 12.7454 12.6563 11.8988 12.6563 10.8656V8.61854L17.4667 8.61861Z" fill="#171726" stroke="black" stroke-width="0.2"/>
</svg>
