<svg id="right-arrow" xmlns="http://www.w3.org/2000/svg" width="30" height="30" viewBox="0 0 30 30">
  <rect id="Rectangle_1" data-name="Rectangle 1" width="30" height="30" rx="4" fill="#f3f3f3"/>
  <path id="Path_1" data-name="Path 1" d="M21.167,16H11.283l3.025,3.633A.834.834,0,0,1,13.025,20.7l-4.167-5a.99.99,0,0,1-.075-.125.106.106,0,0,0-.058-.108.8.8,0,0,1,0-.6.106.106,0,0,1,.058-.108.983.983,0,0,1,.075-.125l4.167-5A.834.834,0,1,1,14.308,10.7l-3.025,3.633h9.883a.833.833,0,0,1,0,1.667Z" transform="translate(-0.666)" fill="#53b176"/>
</svg>
