<svg width="70" height="70" viewBox="0 0 70 70" fill="none" xmlns="http://www.w3.org/2000/svg">
<rect width="70" height="70" rx="35" fill="#F3F3F3"/>
<path d="M24.7343 30.4437L20.4468 34.7313C18.6885 36.4896 17.7007 38.8743 17.7007 41.3609C17.7007 43.8476 18.6885 46.2323 20.4468 47.9906C22.2051 49.7489 24.5899 50.7367 27.0765 50.7367C29.5631 50.7367 31.9479 49.7489 33.7062 47.9906L39.4187 42.275C40.479 41.2146 41.2694 39.9152 41.7236 38.4861C42.1779 37.0569 42.2826 35.5397 42.0292 34.0617C41.7757 32.5837 41.1714 31.188 40.2669 29.9919C39.3624 28.7958 38.1842 27.8341 36.8312 27.1875L34.9999 29.0187C34.814 29.205 34.6523 29.4139 34.5187 29.6406C35.5641 29.9412 36.5129 30.5093 37.2715 31.2889C38.03 32.0686 38.5719 33.0326 38.8437 34.0859C39.1154 35.1391 39.1076 36.2451 38.821 37.2943C38.5343 38.3436 37.9788 39.2999 37.2093 40.0687L31.4999 45.7812C30.3272 46.954 28.7366 47.6129 27.078 47.6129C25.4195 47.6129 23.8289 46.954 22.6562 45.7812C21.4834 44.6085 20.8246 43.0179 20.8246 41.3594C20.8246 39.7008 21.4834 38.1103 22.6562 36.9375L25.1343 34.4625C24.7846 33.1523 24.6496 31.7941 24.7343 30.4406V30.4437Z" fill="#53B176"/>
<path d="M30.5813 24.6002C29.521 25.6607 28.7306 26.96 28.2764 28.3891C27.8221 29.8183 27.7174 31.3355 27.9708 32.8135C28.2243 34.2915 28.8287 35.6872 29.7331 36.8833C30.6376 38.0794 31.8158 39.0411 33.1688 39.6877L35.5907 37.2627C34.5312 36.9785 33.5651 36.4204 32.7896 35.6446C32.014 34.8687 31.4564 33.9024 31.1726 32.8428C30.8889 31.7831 30.889 30.6674 31.173 29.6079C31.4571 28.5483 32.015 27.5821 32.7907 26.8065L38.5001 21.094C39.6728 19.9212 41.2634 19.2624 42.922 19.2624C44.5805 19.2624 46.1711 19.9212 47.3438 21.094C48.5166 22.2667 49.1754 23.8573 49.1754 25.5158C49.1754 27.1744 48.5166 28.765 47.3438 29.9377L44.8657 32.4127C45.2157 33.7252 45.3501 35.0846 45.2657 36.4346L49.5532 32.1471C51.3115 30.3888 52.2993 28.004 52.2993 25.5174C52.2993 23.0308 51.3115 20.646 49.5532 18.8877C47.7949 17.1294 45.4101 16.1416 42.9235 16.1416C40.4369 16.1416 38.0521 17.1294 36.2938 18.8877L30.5813 24.6002Z" fill="#53B176"/>
</svg>
