<svg width="18" height="18" viewBox="0 0 18 18" fill="none" xmlns="http://www.w3.org/2000/svg">
<path d="M9.00002 2.33341C7.23191 2.33341 5.53622 3.03579 4.28598 4.28604C3.03573 5.53628 2.33335 7.23197 2.33335 9.00008C2.33335 10.7682 3.03573 12.4639 4.28598 13.7141C5.53622 14.9644 7.23191 15.6667 9.00002 15.6667C10.7681 15.6667 12.4638 14.9644 13.7141 13.7141C14.9643 12.4639 15.6667 10.7682 15.6667 9.00008C15.6667 7.23197 14.9643 5.53628 13.7141 4.28604C12.4638 3.03579 10.7681 2.33341 9.00002 2.33341ZM0.666687 9.00008C0.666687 4.39758 4.39752 0.666748 9.00002 0.666748C13.6025 0.666748 17.3334 4.39758 17.3334 9.00008C17.3334 13.6026 13.6025 17.3334 9.00002 17.3334C4.39752 17.3334 0.666687 13.6026 0.666687 9.00008ZM9.00002 13.1667C9.22103 13.1667 9.433 13.079 9.58928 12.9227C9.74556 12.7664 9.83335 12.5544 9.83335 12.3334V9.00008C9.83335 8.77907 9.74556 8.56711 9.58928 8.41083C9.433 8.25455 9.22103 8.16675 9.00002 8.16675C8.77901 8.16675 8.56705 8.25455 8.41077 8.41083C8.25449 8.56711 8.16669 8.77907 8.16669 9.00008V12.3334C8.16669 12.5544 8.25449 12.7664 8.41077 12.9227C8.56705 13.079 8.77901 13.1667 9.00002 13.1667ZM9.00002 4.83342C8.77901 4.83342 8.56705 4.92121 8.41077 5.07749C8.25449 5.23377 8.16669 5.44573 8.16669 5.66675C8.16669 5.88776 8.25449 6.09972 8.41077 6.256C8.56705 6.41228 8.77901 6.50008 9.00002 6.50008H9.00835C9.22937 6.50008 9.44133 6.41228 9.59761 6.256C9.75389 6.09972 9.84169 5.88776 9.84169 5.66675C9.84169 5.44573 9.75389 5.23377 9.59761 5.07749C9.44133 4.92121 9.22937 4.83342 9.00835 4.83342H9.00002Z" fill="#171726"/>
</svg>
