<svg width="16" height="20" viewBox="0 0 16 20" fill="none" xmlns="http://www.w3.org/2000/svg">
<path d="M7.47222 11.389C6.78548 11.389 6.11416 11.1854 5.54316 10.8039C4.97216 10.4223 4.52711 9.88003 4.26431 9.24557C4.0015 8.6111 3.93274 7.91295 4.06672 7.23941C4.2007 6.56586 4.53139 5.94717 5.01699 5.46157C5.50259 4.97597 6.12128 4.64528 6.79483 4.5113C7.46837 4.37732 8.16652 4.44608 8.80099 4.70889C9.43545 4.97169 9.97774 5.41674 10.3593 5.98774C10.7408 6.55874 10.9444 7.23006 10.9444 7.9168C10.9433 8.83736 10.5772 9.71989 9.92624 10.3708C9.27531 11.0217 8.39278 11.3879 7.47222 11.389ZM7.47222 5.83347C7.06018 5.83347 6.65739 5.95566 6.31479 6.18458C5.97218 6.4135 5.70516 6.73887 5.54747 7.11955C5.38979 7.50023 5.34854 7.91912 5.42892 8.32324C5.50931 8.72737 5.70773 9.09858 5.99908 9.38994C6.29044 9.6813 6.66166 9.87972 7.06579 9.96011C7.46991 10.0405 7.8888 9.99924 8.26948 9.84155C8.65016 9.68387 8.97553 9.41684 9.20445 9.07424C9.43337 8.73164 9.55556 8.32885 9.55556 7.9168C9.55501 7.36444 9.33534 6.83486 8.94475 6.44427C8.55417 6.05369 8.02459 5.83402 7.47222 5.83347Z" fill="#171726"/>
<path d="M7.6389 19.7223L1.78056 12.8132C1.69916 12.7095 1.6186 12.6051 1.5389 12.5001C0.538189 11.1818 -0.00241749 9.57174 8.127e-06 7.91672C8.127e-06 5.89076 0.804818 3.94778 2.23739 2.51521C3.66996 1.08264 5.61294 0.277832 7.6389 0.277832C9.66486 0.277832 11.6078 1.08264 13.0404 2.51521C14.473 3.94778 15.2778 5.89076 15.2778 7.91672C15.2802 9.57098 14.7398 11.1804 13.7396 12.498L13.7389 12.5001C13.7389 12.5001 13.5306 12.7737 13.4993 12.8105L7.6389 19.7223ZM2.64723 11.6632C2.64862 11.6632 2.80973 11.8771 2.84654 11.923L7.6389 17.5751L12.4375 11.9153C12.4681 11.8771 12.6306 11.6619 12.6313 11.6612C13.4487 10.5842 13.8905 9.26882 13.8889 7.91672C13.8889 6.25912 13.2304 4.6694 12.0583 3.4973C10.8862 2.3252 9.2965 1.66672 7.6389 1.66672C5.98129 1.66672 4.39158 2.3252 3.21948 3.4973C2.04738 4.6694 1.3889 6.25912 1.3889 7.91672C1.38744 9.26966 1.82971 10.5858 2.64792 11.6632H2.64723Z" fill="#171726"/>
</svg>
