<svg width="20" height="20" viewBox="0 0 20 20" fill="none" xmlns="http://www.w3.org/2000/svg">
<path d="M10 18.3334C14.6024 18.3334 18.3334 14.6025 18.3334 10.0001C18.3334 5.39771 14.6024 1.66675 10 1.66675C5.39765 1.66675 1.66669 5.39771 1.66669 10.0001C1.66669 14.6025 5.39765 18.3334 10 18.3334Z" stroke="#171726" stroke-width="1.5" stroke-linecap="round" stroke-linejoin="round"/>
<path d="M10 14.6296V14.638" stroke="#171726" stroke-width="1.5" stroke-linecap="round" stroke-linejoin="round"/>
<path d="M10 11.3889C9.983 11.0883 10.0641 10.7903 10.2311 10.5398C10.3981 10.2893 10.642 10.0999 10.926 10C11.274 9.86691 11.5864 9.65485 11.8385 9.38051C12.0907 9.10618 12.2757 8.77706 12.379 8.41906C12.4824 8.06107 12.5012 7.68397 12.4341 7.31747C12.3669 6.95096 12.2156 6.60505 11.992 6.30696C11.7684 6.00887 11.4787 5.76674 11.1457 5.59965C10.8126 5.43255 10.4454 5.34504 10.0728 5.344C9.70014 5.34297 9.33238 5.42844 8.99842 5.59369C8.66446 5.75894 8.37341 5.99945 8.14819 6.2963" stroke="#171726" stroke-width="1.5" stroke-linecap="round" stroke-linejoin="round"/>
</svg>
