<svg width="15" height="17" viewBox="0 0 15 17" fill="none" xmlns="http://www.w3.org/2000/svg">
<path d="M5.95513 1.04156C6.07964 0.733824 6.29321 0.470279 6.56848 0.284709C6.84374 0.0991387 7.16815 0 7.50013 0C7.8321 0 8.15651 0.0991387 8.43178 0.284709C8.70704 0.470279 8.92062 0.733824 9.04513 1.04156C10.2774 1.38047 11.3644 2.11453 12.1391 3.13101C12.9138 4.14749 13.3334 5.39018 13.3335 6.66823V10.5824L14.8601 12.8724C14.9439 12.9979 14.992 13.1438 14.9993 13.2945C15.0066 13.4452 14.9729 13.595 14.9017 13.728C14.8305 13.8611 14.7246 13.9723 14.5951 14.0498C14.4657 14.1273 14.3177 14.1683 14.1668 14.1682H10.3876C10.2873 14.8625 9.94018 15.4973 9.40988 15.9565C8.87958 16.4157 8.20159 16.6684 7.50013 16.6684C6.79866 16.6684 6.12068 16.4157 5.59037 15.9565C5.06007 15.4973 4.71296 14.8625 4.61263 14.1682H0.833458C0.682589 14.1683 0.534544 14.1273 0.405117 14.0498C0.275691 13.9723 0.169738 13.8611 0.0985631 13.728C0.0273883 13.595 -0.00633813 13.4452 0.000981541 13.2945C0.00830121 13.1438 0.0563925 12.9979 0.140125 12.8724L1.66679 10.5824V6.66823C1.66679 3.98156 3.48346 1.71823 5.95513 1.04156ZM6.32179 14.1682C6.40786 14.4121 6.56745 14.6233 6.77856 14.7727C6.98968 14.922 7.24193 15.0022 7.50054 15.0022C7.75916 15.0022 8.01141 14.922 8.22252 14.7727C8.43364 14.6233 8.59323 14.4121 8.67929 14.1682H6.32096H6.32179ZM7.50013 2.50156C6.39506 2.50156 5.33525 2.94055 4.55385 3.72195C3.77245 4.50335 3.33346 5.56316 3.33346 6.66823V10.8349C3.3335 10.9995 3.28478 11.1604 3.19346 11.2974L2.39096 12.5016H12.6085L11.806 11.2974C11.7149 11.1603 11.6665 10.9994 11.6668 10.8349V6.66823C11.6668 5.56316 11.2278 4.50335 10.4464 3.72195C9.665 2.94055 8.6052 2.50156 7.50013 2.50156Z" fill="#171726"/>
</svg>
