<svg width="20" height="20" viewBox="0 0 20 20" fill="none" xmlns="http://www.w3.org/2000/svg">
<path fill-rule="evenodd" clip-rule="evenodd" d="M12.9038 12.9998C13.4961 12.3847 14.2891 12.0021 15.1393 11.9215C15.9894 11.8409 16.8402 12.0675 17.5376 12.5603C18.2349 13.0531 18.7327 13.7795 18.9405 14.6077C19.1483 15.436 19.0525 16.3113 18.6704 17.075C18.2884 17.8386 17.6453 18.4401 16.8578 18.7704C16.0704 19.1007 15.1906 19.1379 14.3781 18.8753C13.5656 18.6127 12.874 18.0677 12.4288 17.339C11.9836 16.6103 11.8142 15.7462 11.9514 14.9034L6.1502 11.995C5.65702 12.5098 5.02108 12.8651 4.32424 13.0154C3.62739 13.1657 2.90152 13.1039 2.24004 12.8382C1.57856 12.5724 1.01175 12.1148 0.612539 11.5242C0.213331 10.9336 0 10.2371 0 9.5242C0 8.81134 0.213331 8.11478 0.612539 7.52418C1.01175 6.93358 1.57856 6.47596 2.24004 6.21021C2.90152 5.94447 3.62739 5.88275 4.32424 6.03301C5.02108 6.18328 5.65702 6.53864 6.1502 7.05337L11.9514 4.14503C11.8142 3.3022 11.9836 2.43812 12.4288 1.70943C12.874 0.98075 13.5656 0.435697 14.3781 0.173085C15.1906 -0.0895267 16.0704 -0.0523158 16.8578 0.277973C17.6453 0.608261 18.2884 1.20976 18.6704 1.97344C19.0525 2.73711 19.1483 3.61241 18.9405 4.44066C18.7327 5.2689 18.2349 5.99527 17.5376 6.48808C16.8402 6.98089 15.9894 7.20753 15.1393 7.1269C14.2891 7.04628 13.4961 6.66373 12.9038 6.04861L7.09782 8.95099C7.15897 9.33028 7.15897 9.71693 7.09782 10.0962L12.9038 12.9986V12.9998ZM15.4764 4.7617C15.7921 4.7617 16.0949 4.63628 16.3182 4.41302C16.5414 4.18976 16.6669 3.88696 16.6669 3.57122C16.6669 3.25549 16.5414 2.95269 16.3182 2.72943C16.0949 2.50617 15.7921 2.38075 15.4764 2.38075C15.1607 2.38075 14.8579 2.50617 14.6346 2.72943C14.4113 2.95269 14.2859 3.25549 14.2859 3.57122C14.2859 3.88696 14.4113 4.18976 14.6346 4.41302C14.8579 4.63628 15.1607 4.7617 15.4764 4.7617ZM15.4764 16.6665C15.7921 16.6665 16.0949 16.541 16.3182 16.3178C16.5414 16.0945 16.6669 15.7917 16.6669 15.476C16.6669 15.1603 16.5414 14.8575 16.3182 14.6342C16.0949 14.4109 15.7921 14.2855 15.4764 14.2855C15.1607 14.2855 14.8579 14.4109 14.6346 14.6342C14.4113 14.8575 14.2859 15.1603 14.2859 15.476C14.2859 15.7917 14.4113 16.0945 14.6346 16.3178C14.8579 16.541 15.1607 16.6665 15.4764 16.6665ZM3.57163 10.7141C3.88737 10.7141 4.19017 10.5887 4.41343 10.3654C4.63668 10.1421 4.76211 9.83934 4.76211 9.52361C4.76211 9.20787 4.63668 8.90507 4.41343 8.68181C4.19017 8.45855 3.88737 8.33313 3.57163 8.33313C3.2559 8.33313 2.9531 8.45855 2.72984 8.68181C2.50658 8.90507 2.38116 9.20787 2.38116 9.52361C2.38116 9.83934 2.50658 10.1421 2.72984 10.3654C2.9531 10.5887 3.2559 10.7141 3.57163 10.7141Z" fill="#171726"/>
</svg>
