<svg width="20" height="17" viewBox="0 0 20 17" fill="none" xmlns="http://www.w3.org/2000/svg">
<path d="M0 8.37302L4.62963 11.746V9.21627H12.963V7.52976H4.62963V5L0 8.37302Z" fill="#171726"/>
<path d="M10.4721 3.24485e-05C9.31772 -0.00306375 8.17417 0.215446 7.10771 0.642903C6.04125 1.07036 5.07308 1.69827 4.25928 2.49025L5.63969 3.82555C6.93028 2.57713 8.64652 1.88871 10.4721 1.88871C12.2977 1.88871 14.0139 2.57713 15.3045 3.82555C16.5951 5.07396 17.3068 6.73411 17.3068 8.50002C17.3068 10.2659 16.5951 11.9261 15.3045 13.1745C14.0139 14.4229 12.2977 15.1113 10.4721 15.1113C8.64652 15.1113 6.93028 14.4229 5.63969 13.1745L4.25928 14.5098C5.91792 16.1152 8.12423 17 10.4721 17C12.82 17 15.0263 16.1152 16.6849 14.5098C18.3445 12.9054 19.2593 10.7711 19.2593 8.50002C19.2593 6.22888 18.3445 4.09468 16.6849 2.49025C15.8711 1.69827 14.9029 1.07036 13.8365 0.642903C12.77 0.215446 11.6265 -0.00306375 10.4721 3.24485e-05Z" fill="#171726"/>
</svg>
