<svg width="19" height="16" viewBox="0 0 19 16" fill="none" xmlns="http://www.w3.org/2000/svg">
<path d="M1 2.66667C1 2.22464 1.17559 1.80072 1.48816 1.48816C1.80072 1.17559 2.22464 1 2.66667 1H16C16.442 1 16.866 1.17559 17.1785 1.48816C17.4911 1.80072 17.6667 2.22464 17.6667 2.66667V12.6667C17.6667 13.1087 17.4911 13.5326 17.1785 13.8452C16.866 14.1577 16.442 14.3333 16 14.3333H2.66667C2.22464 14.3333 1.80072 14.1577 1.48816 13.8452C1.17559 13.5326 1 13.1087 1 12.6667V2.66667Z" stroke="#171726" stroke-width="1.5" stroke-linecap="round" stroke-linejoin="round"/>
<path d="M1 4.33325H17.6667" stroke="#171726" stroke-width="1.5" stroke-linecap="round" stroke-linejoin="round"/>
<path d="M1 7.66675H6.83333C6.83333 8.50008 7.33333 10.1667 9.33333 10.1667C11.3333 10.1667 11.8333 8.50008 11.8333 7.66675H17.6667" stroke="#171726" stroke-width="1.5" stroke-linecap="round" stroke-linejoin="round"/>
</svg>
