<svg width="20" height="20" viewBox="0 0 20 20" fill="none" xmlns="http://www.w3.org/2000/svg">
<path d="M8.66667 17C8.66667 17.925 7.925 18.6667 7 18.6667C6.075 18.6667 5.33333 17.925 5.33333 17C5.33333 16.075 6.08333 15.3333 7 15.3333C7.91667 15.3333 8.66667 16.0833 8.66667 17ZM15.3333 15.3333C14.4167 15.3333 13.6667 16.0833 13.6667 17C13.6667 17.9167 14.4167 18.6667 15.3333 18.6667C16.25 18.6667 17 17.925 17 17C17 16.075 16.2583 15.3333 15.3333 15.3333ZM7.14167 12.625L7.16667 12.525L7.91667 11.1667H14.125C14.75 11.1667 15.3 10.825 15.5833 10.3083L18.8 4.46667L17.35 3.66667H17.3417L16.425 5.33333L14.125 9.5H8.275L8.16667 9.275L6.3 5.33333L5.50833 3.66667L4.725 2H2V3.66667H3.66667L6.66667 9.99167L5.54167 12.0333C5.40833 12.2667 5.33333 12.5417 5.33333 12.8333C5.33333 13.2754 5.50893 13.6993 5.82149 14.0118C6.13405 14.3244 6.55797 14.5 7 14.5H17V12.8333H7.35C7.24167 12.8333 7.14167 12.7417 7.14167 12.625ZM11.1667 8.08333L10.6667 7.66667C9 6.08333 7.83333 5.08333 7.83333 3.83333C7.83333 2.83333 8.66667 2 9.66667 2C10.25 2 10.8333 2.25 11.1667 2.66667C11.5 2.25 12.0833 2 12.6667 2C13.6667 2 14.5 2.75 14.5 3.83333C14.5 5.08333 13.3333 6.08333 11.6667 7.66667L11.1667 8.08333Z" fill="#171726"/>
</svg>
