<svg width="130" height="41" viewBox="0 0 130 41" fill="none" xmlns="http://www.w3.org/2000/svg">
<path d="M2.7318 35.0289C2.7086 33.8921 0.8642 34.3039 0.8642 33.5499C0.8642 33.2947 1.0962 33.1091 1.4848 33.1091C1.9082 33.1091 2.1518 33.3411 2.175 33.6601H2.7028C2.668 33.0395 2.204 32.6625 1.5022 32.6625C0.7946 32.6625 0.3364 33.0627 0.3364 33.5499C0.3364 34.7331 2.2156 34.3213 2.2156 35.0289C2.2156 35.2899 1.9836 35.4987 1.566 35.4987C1.1194 35.4987 0.8468 35.2667 0.8178 34.9593H0.2726C0.3074 35.5393 0.8294 35.9453 1.5718 35.9453C2.2736 35.9453 2.7318 35.5509 2.7318 35.0289ZM3.47687 35.8931H4.00467V34.1357C4.00467 33.4513 4.37587 33.1149 4.91527 33.1149C5.44887 33.1149 5.80267 33.4455 5.80267 34.0951V35.8931H6.32467V34.0197C6.32467 33.1091 5.76207 32.6567 5.05447 32.6567C4.60787 32.6567 4.21347 32.8365 4.00467 33.1729V31.6011H3.47687V35.8931ZM10.2028 34.2981C10.2028 33.2947 9.50103 32.6625 8.59623 32.6625C7.69723 32.6625 6.98963 33.2947 6.98963 34.2981C6.98963 35.3073 7.67403 35.9453 8.57303 35.9453C9.47783 35.9453 10.2028 35.3073 10.2028 34.2981ZM7.52903 34.2981C7.52903 33.4977 8.03363 33.1207 8.59043 33.1207C9.13563 33.1207 9.66343 33.4977 9.66343 34.2981C9.66343 35.1043 9.12403 35.4813 8.57303 35.4813C8.02203 35.4813 7.52903 35.1043 7.52903 34.2981ZM11.4246 33.3005V32.7147H10.8968V37.4011H11.4246V35.3073C11.6218 35.6321 12.0336 35.9453 12.6136 35.9453C13.4662 35.9453 14.1216 35.2783 14.1216 34.2923C14.1216 33.3005 13.4662 32.6625 12.6136 32.6625C12.0336 32.6625 11.616 32.9641 11.4246 33.3005ZM13.5822 34.2923C13.5822 35.0405 13.0892 35.4813 12.5034 35.4813C11.9292 35.4813 11.4246 35.0463 11.4246 34.2981C11.4246 33.5615 11.9292 33.1207 12.5034 33.1207C13.0892 33.1207 13.5822 33.5441 13.5822 34.2923ZM16.4786 35.0231C16.4786 35.6611 16.7976 35.8931 17.3602 35.8931H17.8358V35.4465H17.4472C17.1224 35.4465 17.0064 35.3363 17.0064 35.0231V33.1497H17.8358V32.7147H17.0064V31.9143H16.4786V32.7147H16.0668V33.1497H16.4786V35.0231ZM21.4913 34.2981C21.4913 33.2947 20.7895 32.6625 19.8847 32.6625C18.9857 32.6625 18.2781 33.2947 18.2781 34.2981C18.2781 35.3073 18.9625 35.9453 19.8615 35.9453C20.7663 35.9453 21.4913 35.3073 21.4913 34.2981ZM18.8175 34.2981C18.8175 33.4977 19.3221 33.1207 19.8789 33.1207C20.4241 33.1207 20.9519 33.4977 20.9519 34.2981C20.9519 35.1043 20.4125 35.4813 19.8615 35.4813C19.3105 35.4813 18.8175 35.1043 18.8175 34.2981ZM21.9881 34.2923C21.9881 35.2783 22.6435 35.9453 23.4961 35.9453C24.0761 35.9453 24.4879 35.6379 24.6793 35.2957V35.9627C24.6793 36.6413 24.2559 37.0009 23.6933 37.0009C23.1713 37.0009 22.7943 36.7399 22.6783 36.3571H22.1563C22.2607 37.0357 22.8581 37.4591 23.6933 37.4591C24.6271 37.4591 25.2129 36.8385 25.2129 35.9627V32.7147H24.6793V33.2947C24.4937 32.9525 24.0761 32.6625 23.4961 32.6625C22.6435 32.6625 21.9881 33.3005 21.9881 34.2923ZM24.6793 34.2981C24.6793 35.0463 24.1805 35.4813 23.6005 35.4813C23.0205 35.4813 22.5275 35.0405 22.5275 34.2923C22.5275 33.5441 23.0205 33.1207 23.6005 33.1207C24.1805 33.1207 24.6793 33.5615 24.6793 34.2981ZM27.4562 33.1091C28.0014 33.1091 28.4654 33.4513 28.4596 34.0719H26.4528C26.5108 33.4513 26.94 33.1091 27.4562 33.1091ZM28.941 34.9129H28.3726C28.2566 35.2551 27.955 35.4987 27.4794 35.4987C26.94 35.4987 26.4876 35.1449 26.447 34.5011H28.9874C28.999 34.3909 29.0048 34.2981 29.0048 34.1821C29.0048 33.3121 28.4016 32.6625 27.4794 32.6625C26.5514 32.6625 25.9076 33.2947 25.9076 34.2981C25.9076 35.3073 26.5746 35.9453 27.4794 35.9453C28.2682 35.9453 28.7786 35.4929 28.941 34.9129ZM29.8175 35.0231C29.8175 35.6611 30.1365 35.8931 30.6991 35.8931H31.1747V35.4465H30.7861C30.4613 35.4465 30.3453 35.3363 30.3453 35.0231V33.1497H31.1747V32.7147H30.3453V31.9143H29.8175V32.7147H29.4057V33.1497H29.8175V35.0231ZM31.8142 35.8931H32.342V34.1357C32.342 33.4513 32.7132 33.1149 33.2526 33.1149C33.7862 33.1149 34.14 33.4455 34.14 34.0951V35.8931H34.662V34.0197C34.662 33.1091 34.0994 32.6567 33.3918 32.6567C32.9452 32.6567 32.5508 32.8365 32.342 33.1729V31.6011H31.8142V35.8931ZM36.8755 33.1091C37.4207 33.1091 37.8847 33.4513 37.8789 34.0719H35.8721C35.9301 33.4513 36.3593 33.1091 36.8755 33.1091ZM38.3603 34.9129H37.7919C37.6759 35.2551 37.3743 35.4987 36.8987 35.4987C36.3593 35.4987 35.9069 35.1449 35.8663 34.5011H38.4067C38.4183 34.3909 38.4241 34.2981 38.4241 34.1821C38.4241 33.3121 37.8209 32.6625 36.8987 32.6625C35.9707 32.6625 35.3269 33.2947 35.3269 34.2981C35.3269 35.3073 35.9939 35.9453 36.8987 35.9453C37.6875 35.9453 38.1979 35.4929 38.3603 34.9129ZM39.6486 34.1647C39.6486 33.4281 40.0314 33.2019 40.536 33.2019H40.6752V32.6567C40.1706 32.6567 39.8284 32.8771 39.6486 33.2309V32.7147H39.1208V35.8931H39.6486V34.1647ZM40.8263 36.7225H41.1801L41.8297 35.1623H41.2497L40.8263 36.7225ZM46.2658 35.0289C46.2426 33.8921 44.3982 34.3039 44.3982 33.5499C44.3982 33.2947 44.6302 33.1091 45.0188 33.1091C45.4422 33.1091 45.6858 33.3411 45.709 33.6601H46.2368C46.202 33.0395 45.738 32.6625 45.0362 32.6625C44.3286 32.6625 43.8704 33.0627 43.8704 33.5499C43.8704 34.7331 45.7496 34.3213 45.7496 35.0289C45.7496 35.2899 45.5176 35.4987 45.1 35.4987C44.6534 35.4987 44.3808 35.2667 44.3518 34.9593H43.8066C43.8414 35.5393 44.3634 35.9453 45.1058 35.9453C45.8076 35.9453 46.2658 35.5509 46.2658 35.0289ZM46.8137 34.2923C46.8137 35.2783 47.4691 35.9453 48.3159 35.9453C48.9017 35.9453 49.3135 35.6437 49.5049 35.3015V35.8931H50.0385V32.7147H49.5049V33.2947C49.3193 32.9641 48.9133 32.6625 48.3217 32.6625C47.4691 32.6625 46.8137 33.3005 46.8137 34.2923ZM49.5049 34.2981C49.5049 35.0463 49.0061 35.4813 48.4261 35.4813C47.8461 35.4813 47.3531 35.0405 47.3531 34.2923C47.3531 33.5441 47.8461 33.1207 48.4261 33.1207C49.0061 33.1207 49.5049 33.5615 49.5049 34.2981ZM50.5534 32.7147L51.8004 35.8931H52.4152L53.6622 32.7147H53.0996L52.1136 35.4059L51.1218 32.7147H50.5534ZM55.533 33.1091C56.0782 33.1091 56.5422 33.4513 56.5364 34.0719H54.5296C54.5876 33.4513 55.0168 33.1091 55.533 33.1091ZM57.0178 34.9129H56.4494C56.3334 35.2551 56.0318 35.4987 55.5562 35.4987C55.0168 35.4987 54.5644 35.1449 54.5238 34.5011H57.0642C57.0758 34.3909 57.0816 34.2981 57.0816 34.1821C57.0816 33.3121 56.4784 32.6625 55.5562 32.6625C54.6282 32.6625 53.9844 33.2947 53.9844 34.2981C53.9844 35.3073 54.6514 35.9453 55.5562 35.9453C56.345 35.9453 56.8554 35.4929 57.0178 34.9129ZM63.9123 35.8931H64.4343V34.0197C64.4343 33.1091 63.8717 32.6567 63.1467 32.6567C62.6595 32.6567 62.2071 32.9061 62.0215 33.3643C61.8127 32.8887 61.3777 32.6567 60.8557 32.6567C60.4381 32.6567 60.0611 32.8365 59.8523 33.1729V32.7147H59.3245V35.8931H59.8523V34.1415C59.8523 33.4571 60.2177 33.1149 60.7513 33.1149C61.2733 33.1149 61.6213 33.4455 61.6213 34.0951V35.8931H62.1433V34.1415C62.1433 33.4571 62.5087 33.1149 63.0423 33.1149C63.5643 33.1149 63.9123 33.4455 63.9123 34.0951V35.8931ZM68.3161 34.2981C68.3161 33.2947 67.6143 32.6625 66.7095 32.6625C65.8105 32.6625 65.1029 33.2947 65.1029 34.2981C65.1029 35.3073 65.7873 35.9453 66.6863 35.9453C67.5911 35.9453 68.3161 35.3073 68.3161 34.2981ZM65.6423 34.2981C65.6423 33.4977 66.1469 33.1207 66.7037 33.1207C67.2489 33.1207 67.7767 33.4977 67.7767 34.2981C67.7767 35.1043 67.2373 35.4813 66.6863 35.4813C66.1353 35.4813 65.6423 35.1043 65.6423 34.2981ZM69.5379 34.1647C69.5379 33.4281 69.9207 33.2019 70.4253 33.2019H70.5645V32.6567C70.0599 32.6567 69.7177 32.8771 69.5379 33.2309V32.7147H69.0101V35.8931H69.5379V34.1647ZM72.5252 33.1091C73.0704 33.1091 73.5344 33.4513 73.5286 34.0719H71.5218C71.5797 33.4513 72.009 33.1091 72.5252 33.1091ZM74.01 34.9129H73.4416C73.3256 35.2551 73.024 35.4987 72.5484 35.4987C72.009 35.4987 71.5566 35.1449 71.516 34.5011H74.0564C74.068 34.3909 74.0738 34.2981 74.0738 34.1821C74.0738 33.3121 73.4706 32.6625 72.5484 32.6625C71.6204 32.6625 70.9765 33.2947 70.9765 34.2981C70.9765 35.3073 71.6436 35.9453 72.5484 35.9453C73.3372 35.9453 73.8476 35.4929 74.01 34.9129Z" fill="#171726"/>
<path d="M119.49 34.4205H81.8443C81.2586 34.4205 80.7836 33.9424 80.7836 33.3557C80.7836 33.0649 80.902 32.7974 81.0925 32.6009C81.2882 32.4097 81.5495 32.2908 81.8443 32.2908H119.49C120.875 32.2908 120.884 34.4205 119.49 34.4205Z" fill="#FB6A09"/>
<path d="M129.093 10.59L123.809 34.2719C123.7 34.7553 123.274 35.0977 122.781 35.0977H122.777C122.104 35.0977 121.603 34.4723 121.749 33.8119L122.801 29.0445C122.824 28.9527 122.806 28.8726 122.749 28.8041C122.692 28.7356 122.618 28.7123 122.526 28.7356C122.252 28.7808 122.013 28.8041 121.807 28.8041C120.87 28.8041 120.03 28.5069 119.289 27.9098C118.546 27.3141 118.072 26.5567 117.868 25.6392L114.616 10.5823C114.473 9.92319 114.974 9.30158 115.644 9.30158H115.647C116.142 9.30158 116.571 9.64922 116.675 10.1351L119.922 25.192C120.128 26.1781 120.755 26.6705 121.807 26.6705C122.834 26.6705 123.462 26.1665 123.691 25.1572L127.036 10.1274C127.144 9.64405 127.57 9.30029 128.063 9.30029C128.74 9.30159 129.24 9.92966 129.093 10.59Z" fill="#FB6A09"/>
<path d="M5.75687 28.6891H5.65131C4.07047 28.6891 2.51925 28.061 1.49454 26.8527C0.720853 25.9403 0.334656 24.8664 0.334656 23.6335V3.19403C0.334656 3.0467 0.45309 2.92651 0.601132 2.92651H2.19355C2.34031 2.92651 2.46003 3.04541 2.46003 3.19403V8.74845C2.46003 9.12452 2.76384 9.42822 3.13716 9.42822H5.75687C5.90363 9.42822 6.02335 9.54711 6.02335 9.69573V11.2931C6.02335 11.4404 5.90491 11.5606 5.75687 11.5606H2.87069C2.59649 11.5606 2.46003 11.6872 2.46003 11.9392V23.6335C2.46003 24.436 2.75097 25.1248 3.33412 25.6973C3.91599 26.2711 4.60729 26.5567 5.40672 26.5567H6.02335V28.4216C6.02335 28.5689 5.90363 28.6891 5.75687 28.6891Z" fill="#FB6A09"/>
<path d="M26.5755 15.1467C26.8008 15.6895 26.5459 16.3137 26.0052 16.5411L11.0491 22.8102C10.7955 22.9162 10.7388 23.0764 10.8779 23.2923C11.8987 24.8521 13.3058 25.9144 15.1003 26.4791C16.8948 27.0439 18.6662 26.9599 20.4157 26.2258C21.8703 25.6159 23.0328 24.6621 23.9043 23.3659C24.66 22.2403 25.0938 21.0113 25.2045 19.6789C25.2367 19.2899 25.4903 18.9552 25.8495 18.804C26.591 18.4926 27.3865 19.0909 27.317 19.8947C27.187 21.3977 26.712 22.8231 25.892 24.1723C24.6909 26.1483 23.0019 27.544 20.8225 28.3569C18.5143 29.2176 15.9396 29.1581 13.6598 28.2251C11.1044 27.1796 9.29704 25.382 8.23629 22.8335C7.2399 20.4388 7.17811 18.0389 8.04963 15.6339C9.05503 12.8606 11.2499 10.6391 14.0074 9.61426C16.3941 8.72643 18.7846 8.77813 21.1803 9.76547C23.7202 10.8135 25.5186 12.6073 26.5755 15.1467ZM23.9198 14.6556C22.8989 13.0958 21.4867 12.0361 19.6819 11.4752C17.8771 10.9156 16.1096 10.9971 14.382 11.7221C12.6531 12.447 11.3529 13.6502 10.4814 15.3328C9.60986 17.0154 9.36785 18.7691 9.75533 20.5952C9.81841 20.8666 9.97675 20.9493 10.2304 20.8433L23.7614 15.1713C24.015 15.0627 24.0678 14.8921 23.9198 14.6556Z" fill="#FB6A09"/>
<path d="M48.4781 28.6894H46.6192C46.5458 28.6894 46.4866 28.63 46.4866 28.5563V25.5594C46.4866 25.4909 46.4518 25.4444 46.3836 25.4224C46.3154 25.3991 46.2574 25.4108 46.2124 25.4573C44.5195 27.4268 42.4701 28.5679 40.0641 28.8781C36.6231 29.3226 33.1331 27.9347 30.9292 25.2454C29.4681 23.4632 28.7382 21.3774 28.7382 18.9905C28.7382 15.7984 30.0449 13.1466 32.6581 11.0349C33.9969 9.95194 35.6318 9.27217 37.3427 9.08995C40.6653 8.73456 43.4498 9.67925 45.6987 11.924C47.64 13.8625 48.6107 16.2184 48.6107 18.9918V28.5576C48.6107 28.63 48.5514 28.6894 48.4781 28.6894ZM46.4866 18.9892C46.4866 16.8116 45.7206 14.9532 44.1913 13.418C42.6606 11.8814 40.8223 11.1137 38.6751 11.1137C36.4274 11.1137 34.5119 11.9563 32.9272 13.6389C31.6656 14.9791 30.9164 16.7483 30.8378 18.5899C30.7387 20.9186 31.5008 22.8972 33.1254 24.5281C34.6548 26.0647 36.5059 26.8323 38.6751 26.8323C40.8455 26.8323 42.689 26.0647 44.208 24.5281C45.7271 22.9915 46.4866 21.1461 46.4866 18.9892Z" fill="#FB6A09"/>
<path d="M73.2745 28.6891C72.6978 28.6891 72.2292 28.22 72.2292 27.6398V15.6185C72.2292 14.3805 71.789 13.3195 70.9097 12.4368C70.0305 11.5541 68.962 11.1122 67.7069 11.1122C66.4736 11.1122 65.4167 11.5541 64.5375 12.4368C63.6582 13.3195 63.218 14.3805 63.218 15.6185V27.6398C63.218 28.2187 62.7507 28.6891 62.1727 28.6891C61.5959 28.6891 61.1273 28.22 61.1273 27.6398V15.6185C61.1273 14.3805 60.6871 13.3195 59.8078 12.4368C58.9286 11.5541 57.8717 11.1122 56.6384 11.1122C55.382 11.1122 54.3135 11.5541 53.4356 12.4368C52.5563 13.3195 52.1161 14.3805 52.1161 15.6185V27.6398C52.1161 28.2187 51.6488 28.6891 51.0708 28.6891C50.494 28.6891 50.0255 28.22 50.0255 27.6398V15.6185C50.0255 13.7847 50.6704 12.2249 51.9616 10.9403C53.2515 9.65571 54.8104 9.01343 56.6384 9.01343C58.5939 9.01343 60.1773 9.68415 61.3887 11.0256C61.8032 11.4857 62.5138 11.4895 62.9335 11.0346C64.1732 9.68802 65.763 9.01343 67.7043 9.01343C69.531 9.01343 71.09 9.65571 72.3811 10.9403C73.671 12.2249 74.3173 13.7834 74.3173 15.6185V27.6398C74.3199 28.2187 73.8526 28.6891 73.2745 28.6891Z" fill="#FB6A09"/>
<path d="M95.4295 23.3919C93.8834 26.0761 91.6448 27.716 88.7045 28.3092C86.9744 28.6581 85.3201 28.5754 83.747 28.0624C83.5488 27.9977 83.3531 27.9267 83.1574 27.8491C82.5151 27.592 81.8856 27.2624 81.2715 26.8592C78.9775 25.3575 77.5653 23.2795 77.0362 20.6276L73.4368 2.55956C73.3429 2.09173 72.9773 1.74151 72.3413 1.51923C71.699 1.29824 70.9896 1.26464 70.2057 1.4236L69.6045 1.54508L69.3547 0.295397L69.9559 0.173918C71.3231 -0.101348 72.5512 -0.0509471 73.6428 0.332874C74.7293 0.717988 75.3601 1.32151 75.5236 2.14084C75.5236 2.14084 78.9916 19.9517 79.2234 20.7633C79.737 22.5557 80.7952 23.9838 82.3966 25.0551C82.6193 25.2037 82.8446 25.3407 83.0725 25.4648C83.7161 25.8176 84.3804 26.0683 85.0652 26.2182C86.0951 26.4457 87.1687 26.4457 88.2887 26.2208C90.4167 25.7917 92.0799 24.6726 93.281 22.8607C94.4782 21.0554 94.8669 19.0923 94.4447 16.9794C94.0173 14.8431 92.9025 13.1734 91.1041 11.9716C90.324 11.4508 89.5142 11.0825 88.6736 10.8666C87.9913 10.6909 87.2885 10.6159 86.5663 10.6431C86.1209 10.6586 85.6677 10.7141 85.2056 10.8059C83.3531 11.1794 81.8521 12.0918 80.6896 13.5392C80.6883 13.5418 80.6858 13.5431 80.6845 13.5456C80.5004 13.7744 80.1348 13.6891 80.0756 13.4009C79.8027 12.062 80.3935 10.6883 81.5599 9.98269C82.5176 9.40243 83.5951 8.99277 84.7936 8.7511C85.5647 8.59602 86.3191 8.52623 87.058 8.54045C87.7712 8.55467 88.4702 8.64771 89.1525 8.82218C90.2248 9.09486 91.2573 9.56397 92.2537 10.2295C94.7524 11.8992 96.2109 14.2693 96.6229 17.3451C96.8996 19.4309 96.4774 21.5671 95.4295 23.3919Z" fill="#FB6A09"/>
<path d="M113.525 21.2244C113.525 23.3567 112.777 25.1737 111.282 26.6754C109.786 28.1771 107.976 28.928 105.852 28.928C103.749 28.928 101.951 28.1771 100.455 26.6754C98.9592 25.1737 98.2113 23.3567 98.2113 21.2244V16.2089C98.2113 15.6299 98.6786 15.1595 99.2566 15.1595C99.8333 15.1595 100.302 15.6286 100.302 16.2089V21.0965C100.302 22.7984 101.028 24.4332 102.326 25.5278C103.328 26.373 104.504 26.7956 105.852 26.7956C107.223 26.7956 108.412 26.3704 109.419 25.5214C110.714 24.4294 111.436 22.7997 111.436 21.1016V16.2076C111.436 15.6286 111.903 15.1582 112.481 15.1582C113.058 15.1582 113.527 15.6273 113.527 16.2076V21.2244H113.525Z" fill="#53B176"/>
<path d="M99.2797 12.9795C99.8578 12.9795 100.326 12.5091 100.326 11.9288C100.326 11.3486 99.8578 10.8782 99.2797 10.8782C98.7017 10.8782 98.2332 11.3486 98.2332 11.9288C98.2332 12.5091 98.7017 12.9795 99.2797 12.9795Z" fill="#53B176"/>
<path d="M112.604 12.9795C113.182 12.9795 113.65 12.5091 113.65 11.9288C113.65 11.3486 113.182 10.8782 112.604 10.8782C112.026 10.8782 111.557 11.3486 111.557 11.9288C111.557 12.5091 112.026 12.9795 112.604 12.9795Z" fill="#53B176"/>
<path d="M93.8125 37.1503C93.4134 36.0518 92.3591 35.2673 91.1335 35.2673C89.908 35.2673 88.8537 36.0518 88.4546 37.1503C88.34 37.454 88.2795 37.7848 88.2795 38.1337C88.2795 38.4826 88.3413 38.8122 88.4546 39.1172C88.8537 40.2157 89.908 41.0001 91.1335 41.0001C92.3591 41.0001 93.4134 40.2157 93.8125 39.1172C93.927 38.8135 93.9875 38.4826 93.9875 38.1337C93.9888 37.7848 93.927 37.454 93.8125 37.1503ZM91.1335 39.6768C90.6585 39.6768 90.2337 39.4609 89.9518 39.1172C89.7278 38.8523 89.5965 38.5085 89.5965 38.1337C89.5965 37.7589 89.7278 37.4152 89.9518 37.1503C90.2324 36.8065 90.6585 36.5907 91.1335 36.5907C91.6086 36.5907 92.0334 36.8065 92.3153 37.1503C92.5393 37.4152 92.6706 37.7589 92.6706 38.1337C92.6706 38.5085 92.5393 38.8523 92.3153 39.1172C92.0334 39.4609 91.6073 39.6768 91.1335 39.6768Z" fill="#FB6A09"/>
<path d="M115.226 37.1503C114.827 36.0518 113.772 35.2673 112.547 35.2673C111.321 35.2673 110.267 36.0518 109.868 37.1503C109.753 37.454 109.693 37.7848 109.693 38.1337C109.693 38.4826 109.755 38.8122 109.868 39.1172C110.267 40.2157 111.321 41.0001 112.547 41.0001C113.772 41.0001 114.827 40.2157 115.226 39.1172C115.34 38.8135 115.401 38.4826 115.401 38.1337C115.402 37.7848 115.34 37.454 115.226 37.1503ZM112.547 39.6768C112.072 39.6768 111.647 39.4609 111.365 39.1172C111.141 38.8523 111.01 38.5085 111.01 38.1337C111.01 37.7589 111.141 37.4152 111.365 37.1503C111.646 36.8065 112.072 36.5907 112.547 36.5907C113.022 36.5907 113.447 36.8065 113.729 37.1503C113.953 37.4152 114.084 37.7589 114.084 38.1337C114.084 38.5085 113.953 38.8523 113.729 39.1172C113.447 39.4609 113.021 39.6768 112.547 39.6768Z" fill="#FB6A09"/>
</svg>
