<svg width="1024" height="1024" viewBox="0 0 1024 1024" fill="none" xmlns="http://www.w3.org/2000/svg">
<g clip-path="url(#clip0_1992_3219)">
<rect width="1024" height="1024" fill="#53B176"/>
<path d="M913.171 1024H110.853C49.6353 1024 0 974.365 0 913.147V110.853C0 49.6353 49.6353 0 110.853 0H913.147C974.364 0 1024 49.6353 1024 110.853V913.147C1024.02 974.365 974.389 1024 913.171 1024Z" fill="#53B176"/>
<path d="M809.616 715.758H256.571C247.969 715.758 240.977 708.767 240.977 700.164C240.977 695.906 242.732 691.993 245.523 689.116C248.4 686.325 252.227 684.57 256.571 684.57H809.616C829.957 684.57 830.101 715.758 809.616 715.758Z" fill="white"/>
<path d="M950.682 366.991L873.057 713.543C871.475 720.621 865.202 725.627 857.952 725.627H857.894C847.997 725.627 840.66 716.478 842.789 706.81L858.24 637.04C858.585 635.688 858.326 634.537 857.492 633.53C856.658 632.523 855.564 632.178 854.212 632.523C850.184 633.185 846.674 633.53 843.653 633.53C829.9 633.53 817.557 629.185 806.653 620.439C795.748 611.721 788.786 600.644 785.765 587.208L737.975 366.876C735.875 357.238 743.24 348.117 753.08 348.117H753.138C760.417 348.117 766.718 353.21 768.243 360.316L815.946 580.648C818.967 595.091 828.202 602.284 843.624 602.284C858.729 602.284 867.936 594.918 871.302 580.13L920.443 360.201C922.026 353.123 928.298 348.117 935.548 348.117C945.503 348.146 952.84 357.324 950.682 366.991Z" fill="white"/>
<path d="M456.13 554.322C433.43 593.595 400.515 617.619 357.329 626.279C331.895 631.372 307.612 630.192 284.48 622.683C281.574 621.733 278.697 620.698 275.82 619.576C266.383 615.807 257.147 611.002 248.113 605.075C214.393 583.093 193.677 552.682 185.88 513.898L133.027 249.489C131.646 242.641 126.266 237.52 116.915 234.269C107.478 231.017 97.0628 230.557 85.5255 232.859L76.6928 234.643L73.01 216.344L81.8427 214.56C101.925 210.532 119.965 211.252 135.991 216.891C151.959 222.53 161.223 231.363 163.611 243.36C163.611 243.36 214.565 504.001 217.96 515.883C225.499 542.094 241.035 563.011 264.57 578.691C267.85 580.878 271.159 582.892 274.496 584.676C283.962 589.826 293.715 593.509 303.785 595.695C318.919 599.033 334.686 599.033 351.143 595.724C382.389 589.452 406.845 573.052 424.482 546.554C442.061 520.142 447.786 491.399 441.572 460.47C435.3 429.224 418.9 404.768 392.488 387.189C381.037 379.564 369.125 374.184 356.783 371.019C346.741 368.43 336.441 367.365 325.824 367.739C319.265 367.969 312.618 368.775 305.857 370.127C278.639 375.594 256.6 388.944 239.51 410.12C239.481 410.148 239.453 410.177 239.424 410.206C236.719 413.572 231.339 412.306 230.476 408.077C226.477 388.484 235.137 368.372 252.285 358.043C266.354 349.556 282.178 343.542 299.786 340.032C311.122 337.759 322.199 336.724 333.046 336.954C343.519 337.155 353.79 338.536 363.803 341.068C379.541 345.039 394.732 351.915 409.348 361.669C446.06 386.095 467.495 420.794 473.537 465.792C477.737 496.376 471.523 527.651 456.13 554.322Z" fill="white"/>
<path d="M721.978 522.644C721.978 553.861 710.987 580.446 689.006 602.427C667.024 624.409 640.44 635.4 609.223 635.4C578.351 635.4 551.91 624.409 529.957 602.427C507.976 580.446 496.985 553.861 496.985 522.644V449.248C496.985 440.761 503.861 433.884 512.349 433.884C520.837 433.884 527.713 440.761 527.713 449.248V520.774C527.713 545.69 538.387 569.599 557.463 585.625C572.194 597.997 589.457 604.183 609.28 604.183C629.42 604.183 646.884 597.968 661.673 585.538C680.691 569.542 691.308 545.69 691.308 520.86V449.248C691.308 440.761 698.184 433.884 706.671 433.884C715.159 433.884 722.035 440.761 722.035 449.248V522.644H721.978Z" fill="white"/>
<path d="M512.694 401.977C521.195 401.977 528.087 395.085 528.087 386.584C528.087 378.083 521.195 371.191 512.694 371.191C504.193 371.191 497.302 378.083 497.302 386.584C497.302 395.085 504.193 401.977 512.694 401.977Z" fill="white"/>
<path d="M708.455 401.977C716.956 401.977 723.848 395.085 723.848 386.584C723.848 378.083 716.956 371.191 708.455 371.191C699.954 371.191 693.062 378.083 693.062 386.584C693.062 395.085 699.954 401.977 708.455 401.977Z" fill="white"/>
<path d="M432.394 755.665C426.524 739.61 411.045 728.102 393.034 728.102C375.023 728.102 359.544 739.581 353.675 755.665C352.006 760.124 351.086 764.958 351.086 770.05C351.086 775.143 351.977 779.977 353.675 784.436C359.544 800.491 375.023 811.999 393.034 811.999C411.045 811.999 426.524 800.519 432.394 784.436C434.062 779.977 434.983 775.143 434.983 770.05C434.983 764.958 434.062 760.124 432.394 755.665ZM393.034 792.665C386.072 792.665 379.799 789.5 375.685 784.465C372.405 780.581 370.449 775.546 370.449 770.079C370.449 764.584 372.376 759.549 375.685 755.693C379.828 750.659 386.072 747.494 393.034 747.494C399.997 747.494 406.269 750.659 410.383 755.693C413.663 759.578 415.62 764.613 415.62 770.079C415.62 775.575 413.692 780.61 410.383 784.465C406.24 789.5 399.997 792.665 393.034 792.665Z" fill="white"/>
<path d="M746.98 755.665C741.111 739.61 725.632 728.102 707.621 728.102C689.61 728.102 674.131 739.581 668.262 755.665C666.593 760.124 665.672 764.958 665.672 770.05C665.672 775.143 666.564 779.977 668.262 784.436C674.131 800.491 689.61 811.999 707.621 811.999C725.632 811.999 741.111 800.519 746.98 784.436C748.649 779.977 749.57 775.143 749.57 770.05C749.57 764.958 748.649 760.124 746.98 755.665ZM707.621 792.665C700.658 792.665 694.386 789.5 690.272 784.465C686.992 780.581 685.035 775.546 685.035 770.079C685.035 764.584 686.963 759.549 690.272 755.693C694.415 750.659 700.658 747.494 707.621 747.494C714.584 747.494 720.856 750.659 724.97 755.693C728.25 759.578 730.206 764.613 730.206 770.079C730.206 775.575 728.279 780.61 724.97 784.465C720.827 789.5 714.584 792.665 707.621 792.665Z" fill="white"/>
<path fill-rule="evenodd" clip-rule="evenodd" d="M73.6003 282.349C73.6003 275.886 79.4047 271.085 85.9912 271.085H138.709C145.295 271.085 151.1 275.886 151.1 282.349C151.1 288.812 145.295 293.613 138.709 293.613H85.9912C79.4047 293.613 73.6003 288.812 73.6003 282.349ZM85.9912 275.59C81.3796 275.59 78.1061 278.858 78.1061 282.349C78.1061 285.84 81.3796 289.108 85.9912 289.108H138.709C143.32 289.108 146.594 285.84 146.594 282.349C146.594 278.858 143.32 275.59 138.709 275.59H85.9912Z" fill="#53B176"/>
<path fill-rule="evenodd" clip-rule="evenodd" d="M73.6003 317.494C73.6003 311.18 78.9224 306.23 85.2744 306.23H149.338C155.69 306.23 161.012 311.18 161.012 317.494C161.012 323.809 155.69 328.759 149.338 328.759H85.2744C78.9224 328.759 73.6003 323.809 73.6003 317.494ZM85.2744 310.735C81.22 310.735 78.1061 313.855 78.1061 317.494C78.1061 321.133 81.22 324.253 85.2744 324.253H149.338C153.393 324.253 156.507 321.133 156.507 317.494C156.507 313.855 153.393 310.735 149.338 310.735H85.2744Z" fill="#53B176"/>
<path fill-rule="evenodd" clip-rule="evenodd" d="M73.6003 353.54C73.6003 347.16 79.1279 342.276 85.5785 342.276H164.354C170.804 342.276 176.332 347.16 176.332 353.54C176.332 359.92 170.804 364.805 164.354 364.805H85.5785C79.1279 364.805 73.6003 359.92 73.6003 353.54ZM85.5785 346.782C81.2868 346.782 78.1061 349.966 78.1061 353.54C78.1061 357.114 81.2868 360.299 85.5785 360.299H164.354C168.646 360.299 171.826 357.114 171.826 353.54C171.826 349.966 168.646 346.782 164.354 346.782H85.5785Z" fill="#53B176"/>
<path fill-rule="evenodd" clip-rule="evenodd" d="M73.6003 389.587C73.6003 383.121 79.4114 378.322 86.0013 378.322H178.35C184.939 378.322 190.751 383.121 190.751 389.587C190.751 396.052 184.939 400.851 178.35 400.851H86.0013C79.4114 400.851 73.6003 396.052 73.6003 389.587ZM86.0013 382.828C81.3819 382.828 78.1061 386.098 78.1061 389.587C78.1061 393.075 81.3819 396.345 86.0013 396.345H178.35C182.969 396.345 186.245 393.075 186.245 389.587C186.245 386.098 182.969 382.828 178.35 382.828H86.0013Z" fill="#53B176"/>
<path fill-rule="evenodd" clip-rule="evenodd" d="M75.8532 282.349C75.8532 277.372 80.3921 273.337 85.9912 273.337H138.709C144.308 273.337 148.847 277.372 148.847 282.349C148.847 287.326 144.308 291.361 138.709 291.361H85.9912C80.3921 291.361 75.8532 287.326 75.8532 282.349Z" fill="white"/>
<path fill-rule="evenodd" clip-rule="evenodd" d="M75.8532 317.494C75.8532 312.517 80.0712 308.483 85.2744 308.483H149.338C154.541 308.483 158.76 312.517 158.76 317.494C158.76 322.471 154.541 326.506 149.338 326.506H85.2744C80.0712 326.506 75.8532 322.471 75.8532 317.494Z" fill="white"/>
<path fill-rule="evenodd" clip-rule="evenodd" d="M75.8532 353.54C75.8532 348.563 80.2074 344.529 85.5785 344.529H164.354C169.725 344.529 174.079 348.563 174.079 353.54C174.079 358.517 169.725 362.552 164.354 362.552H85.5785C80.2074 362.552 75.8532 358.517 75.8532 353.54Z" fill="white"/>
<path fill-rule="evenodd" clip-rule="evenodd" d="M75.8532 389.587C75.8532 384.61 80.3967 380.575 86.0013 380.575H178.35C183.954 380.575 188.498 384.61 188.498 389.587C188.498 394.563 183.954 398.598 178.35 398.598H86.0013C80.3967 398.598 75.8532 394.563 75.8532 389.587Z" fill="white"/>
</g>
<defs>
<clipPath id="clip0_1992_3219">
<rect width="1024" height="1024" fill="white"/>
</clipPath>
</defs>
</svg>
