<svg width="17" height="17" viewBox="0 0 17 17" fill="none" xmlns="http://www.w3.org/2000/svg">
<path fill-rule="evenodd" clip-rule="evenodd" d="M16.8061 0.119878C16.8669 0.169749 16.9159 0.232505 16.9495 0.303616C16.9831 0.374727 17.0006 0.452418 17.0005 0.531078V15.4065C17.0004 15.5293 16.9578 15.6483 16.88 15.7432C16.8021 15.8381 16.6938 15.9031 16.5734 15.9272L11.2607 16.9897C11.192 17.0034 11.1212 17.0034 11.0525 16.9897L5.84392 15.9484L0.635394 16.9897C0.558348 17.0051 0.478846 17.0032 0.402615 16.9842C0.326384 16.9652 0.255322 16.9295 0.194549 16.8797C0.133776 16.8299 0.0848042 16.7672 0.0511628 16.6962C0.0175213 16.6252 4.74449e-05 16.5476 0 16.4691L0 1.59361C7.41456e-05 1.47084 0.0426671 1.35188 0.120537 1.25697C0.198407 1.16205 0.306748 1.09703 0.427138 1.07297L5.7398 0.0104374C5.80854 -0.00330196 5.87931 -0.00330196 5.94805 0.0104374L11.1566 1.05172L16.3651 0.0104374C16.4421 -0.0050588 16.5216 -0.00328063 16.5979 0.0156438C16.6741 0.0345682 16.7452 0.0701677 16.8061 0.119878ZM10.6253 2.02925L6.37519 1.17922V14.9709L10.6253 15.8209V2.02925ZM11.6878 15.8209L15.938 14.9709V1.17922L11.6878 2.02925V15.8209ZM5.31266 14.9709V1.17922L1.06253 2.02925V15.8209L5.31266 14.9709Z" fill="black"/>
</svg>
