<svg width="18" height="18" viewBox="0 0 18 18" fill="none" xmlns="http://www.w3.org/2000/svg">
<path fill-rule="evenodd" clip-rule="evenodd" d="M3.48758 12.5999C3.53998 12.5301 3.60792 12.4734 3.68603 12.4343C3.76414 12.3953 3.85026 12.3749 3.93759 12.3749H6.75016C6.89934 12.3749 7.04242 12.4342 7.14791 12.5397C7.25341 12.6452 7.31267 12.7883 7.31267 12.9375C7.31267 13.0866 7.25341 13.2297 7.14791 13.3352C7.04242 13.4407 6.89934 13.5 6.75016 13.5H4.21885L1.68754 16.875H16.3129L13.7816 13.5H11.2503C11.1011 13.5 10.958 13.4407 10.8525 13.3352C10.747 13.2297 10.6877 13.0866 10.6877 12.9375C10.6877 12.7883 10.747 12.6452 10.8525 12.5397C10.958 12.4342 11.1011 12.3749 11.2503 12.3749H14.0628C14.1502 12.3749 14.2363 12.3953 14.3144 12.4343C14.3925 12.4734 14.4604 12.5301 14.5128 12.5999L17.8879 17.1C17.9506 17.1836 17.9888 17.283 17.9981 17.387C18.0075 17.4911 17.9877 17.5957 17.941 17.6891C17.8943 17.7826 17.8225 17.8611 17.7336 17.9161C17.6448 17.971 17.5424 18.0001 17.4379 18.0001H0.562513C0.458048 18.0001 0.355646 17.971 0.266783 17.9161C0.177919 17.8611 0.106105 17.7826 0.0593864 17.6891C0.012668 17.5957 -0.00710837 17.4911 0.0022732 17.387C0.0116548 17.283 0.0498236 17.1836 0.112503 17.1L3.48758 12.5999Z" fill="black"/>
<path fill-rule="evenodd" clip-rule="evenodd" d="M9.0001 1.12473C8.55688 1.12473 8.118 1.21203 7.70852 1.38164C7.29904 1.55126 6.92697 1.79986 6.61356 2.11327C6.30016 2.42667 6.05155 2.79874 5.88194 3.20822C5.71233 3.61771 5.62503 4.05659 5.62503 4.49981C5.62503 4.94303 5.71233 5.38191 5.88194 5.7914C6.05155 6.20088 6.30016 6.57295 6.61356 6.88635C6.92697 7.19976 7.29904 7.44836 7.70852 7.61798C8.118 7.78759 8.55688 7.87489 9.0001 7.87489C9.89523 7.87489 10.7537 7.5193 11.3866 6.88635C12.0196 6.2534 12.3752 5.39494 12.3752 4.49981C12.3752 3.60468 12.0196 2.74622 11.3866 2.11327C10.7537 1.48032 9.89523 1.12473 9.0001 1.12473ZM4.5 4.49981C4.50008 3.63379 4.75005 2.78619 5.2199 2.05872C5.68975 1.33124 6.35953 0.754791 7.14888 0.398534C7.93822 0.0422778 8.8136 -0.0786505 9.66997 0.05026C10.5263 0.17917 11.3273 0.552444 11.9768 1.12529C12.6263 1.69814 13.0967 2.44622 13.3316 3.27978C13.5664 4.11334 13.5558 4.99696 13.3009 5.82463C13.046 6.65229 12.5578 7.38883 11.8947 7.94587C11.2316 8.50291 10.4218 8.85679 9.56262 8.96504V15.1876C9.56262 15.3367 9.50335 15.4798 9.39786 15.5853C9.29237 15.6908 9.14929 15.7501 9.0001 15.7501C8.85092 15.7501 8.70784 15.6908 8.60235 15.5853C8.49686 15.4798 8.43759 15.3367 8.43759 15.1876V8.96616C7.34965 8.8291 6.34919 8.29951 5.62414 7.47689C4.89909 6.65427 4.49935 5.59522 4.5 4.49868V4.49981Z" fill="black"/>
</svg>
