<svg width="22" height="22" viewBox="0 0 22 22" fill="none" xmlns="http://www.w3.org/2000/svg">
<path d="M10.9209 0.25001C8.92716 0.247277 6.97269 0.803898 5.27957 1.8566C3.58646 2.90931 2.22262 4.41588 1.34306 6.20508C0.463513 7.99427 0.103529 9.99433 0.30403 11.9779C0.50453 13.9615 1.25747 15.8491 2.47728 17.4261C3.69708 19.0031 5.33482 20.2062 7.20435 20.8988C9.07388 21.5914 11.1002 21.7457 13.053 21.344C15.0059 20.9424 16.8068 20.0009 18.2513 18.6268C19.6957 17.2526 20.7257 15.5007 21.2241 13.5703H18.4522C17.9637 14.9519 17.1048 16.1726 15.9694 17.0989C14.8339 18.0253 13.4656 18.6216 12.0141 18.8228C10.5626 19.0239 9.08373 18.8221 7.73917 18.2395C6.39461 17.6568 5.23612 16.7157 4.39037 15.519C3.54461 14.3223 3.04414 12.9161 2.94368 11.4542C2.84321 9.99226 3.14661 8.53084 3.82072 7.22971C4.49482 5.92858 5.51367 4.83783 6.76589 4.0767C8.0181 3.31558 9.45547 2.91338 10.9209 2.91407C11.969 2.9156 13.0063 3.12608 13.9722 3.53318C14.938 3.94029 15.813 4.53587 16.546 5.28509L12.2596 9.57423H21.5838V0.25001L18.4522 3.38028C17.4654 2.38749 16.2919 1.59979 14.9993 1.06255C13.7067 0.52531 12.3206 0.24916 10.9209 0.25001Z" fill="#171726"/>
</svg>
