<svg width="30" height="30" viewBox="0 0 30 30" fill="none" xmlns="http://www.w3.org/2000/svg">
<rect width="30" height="30" rx="4" fill="#F3F3F3"/>
<path d="M9.49991 15.999L19.3832 15.999L16.3582 19.6323C16.2168 19.8025 16.1487 20.0219 16.1691 20.2422C16.1894 20.4626 16.2964 20.6658 16.4666 20.8073C16.6368 20.9487 16.8562 21.0168 17.0765 20.9965C17.2969 20.9762 17.5001 20.8691 17.6416 20.699L21.8082 15.699C21.8363 15.6592 21.8613 15.6174 21.8832 15.574C21.8832 15.5323 21.8832 15.5073 21.9416 15.4656C21.9793 15.3701 21.9991 15.2684 21.9999 15.1656C21.9991 15.0629 21.9793 14.9612 21.9416 14.8656C21.9416 14.824 21.9416 14.799 21.8832 14.7573C21.8613 14.7138 21.8363 14.6721 21.8082 14.6323L17.6416 9.63229C17.5632 9.53822 17.4651 9.46257 17.3542 9.41072C17.2433 9.35887 17.1223 9.33209 16.9999 9.33229C16.8052 9.33191 16.6165 9.39972 16.4666 9.52396C16.3822 9.59391 16.3124 9.67983 16.2613 9.77679C16.2102 9.87374 16.1787 9.97983 16.1686 10.089C16.1586 10.1981 16.1701 10.3082 16.2027 10.4129C16.2352 10.5175 16.2881 10.6147 16.3582 10.699L19.3832 14.3323L9.49991 14.3323C9.2789 14.3323 9.06693 14.4201 8.91065 14.5764C8.75437 14.7326 8.66658 14.9446 8.66658 15.1656C8.66658 15.3866 8.75437 15.5986 8.91065 15.7549C9.06693 15.9112 9.2789 15.999 9.49991 15.999Z" fill="#53B176"/>
</svg>
