<svg xmlns="http://www.w3.org/2000/svg" width="7.4" height="7.2" viewBox="0 0 7.4 7.2">
  <g id="Group_1" data-name="Group 1" transform="translate(-314 -245)">
    <path id="arrow-down" d="M4.3,2.4a.685.685,0,0,1,.259.05.6.6,0,0,1,.209.141l2.9,3.085a.459.459,0,0,1,0,.653l-3,3.085a.637.637,0,0,1-.407.184.671.671,0,0,1-.439-.117A.5.5,0,0,1,3.6,9.132a.467.467,0,0,1,.136-.376L6.421,6,3.829,3.243a.481.481,0,0,1-.134-.265.45.45,0,0,1,.053-.285.551.551,0,0,1,.224-.215A.677.677,0,0,1,4.3,2.4Z" transform="translate(310.4 242.6)" fill="#53b176"/>
    <path id="arrow-down-2" data-name="arrow-down" d="M4.3,2.4a.685.685,0,0,1,.259.05.6.6,0,0,1,.209.141l2.9,3.085a.459.459,0,0,1,0,.653l-3,3.085a.637.637,0,0,1-.407.184.671.671,0,0,1-.439-.117A.5.5,0,0,1,3.6,9.132a.467.467,0,0,1,.136-.376L6.421,6,3.829,3.243a.481.481,0,0,1-.134-.265.45.45,0,0,1,.053-.285.551.551,0,0,1,.224-.215A.677.677,0,0,1,4.3,2.4Z" transform="translate(313.6 242.6)" fill="#53b176"/>
  </g>
</svg>
