<svg width="11" height="10" viewBox="0 0 11 10" fill="none" xmlns="http://www.w3.org/2000/svg">
<path fill-rule="evenodd" clip-rule="evenodd" d="M7.21449 6.44962L9.9122 9.13962C10.007 9.23423 10.0603 9.36253 10.0602 9.49629C10.0602 9.63005 10.0068 9.75832 9.91195 9.85287C9.81706 9.94742 9.68839 10.0005 9.55425 10.0005C9.42011 10.0004 9.29148 9.94723 9.19666 9.85262L6.49895 7.16262C5.6925 7.78546 4.67839 8.07856 3.66291 7.98229C2.64743 7.88603 1.70687 7.40763 1.03257 6.64442C0.358271 5.88121 0.000878541 4.89052 0.0331013 3.87389C0.0653241 2.85726 0.484741 1.89105 1.20603 1.17182C1.92732 0.452592 2.8963 0.034373 3.91584 0.0022423C4.93539 -0.0298884 5.92892 0.326482 6.69431 0.998857C7.45971 1.67123 7.93948 2.6091 8.03602 3.62168C8.13256 4.63426 7.83861 5.64547 7.21399 6.44962H7.21449ZM4.04293 7.00012C4.84086 7.00012 5.60611 6.68405 6.17033 6.12144C6.73455 5.55883 7.05153 4.79577 7.05153 4.00012C7.05153 3.20447 6.73455 2.44141 6.17033 1.8788C5.60611 1.31619 4.84086 1.00012 4.04293 1.00012C3.245 1.00012 2.47975 1.31619 1.91553 1.8788C1.35131 2.44141 1.03434 3.20447 1.03434 4.00012C1.03434 4.79577 1.35131 5.55883 1.91553 6.12144C2.47975 6.68405 3.245 7.00012 4.04293 7.00012Z" fill="#171726"/>
</svg>
