<svg width="15" height="15" viewBox="0 0 15 15" fill="none" xmlns="http://www.w3.org/2000/svg">
<path fill-rule="evenodd" clip-rule="evenodd" d="M10.1613 10.2369C10.6277 9.75253 11.2522 9.45128 11.9217 9.38779C12.5911 9.3243 13.2611 9.50277 13.8103 9.89085C14.3594 10.2789 14.7514 10.8509 14.915 11.5031C15.0787 12.1553 15.0032 12.8446 14.7024 13.446C14.4015 14.0474 13.8951 14.521 13.275 14.7811C12.6549 15.0412 11.9621 15.0705 11.3223 14.8637C10.6825 14.6569 10.1379 14.2277 9.7873 13.6539C9.43672 13.0801 9.30333 12.3996 9.41133 11.7359L4.84309 9.4457C4.45472 9.85103 3.95394 10.1309 3.4052 10.2492C2.85645 10.3675 2.28485 10.3189 1.76396 10.1097C1.24307 9.90039 0.796717 9.54003 0.482354 9.07495C0.167991 8.60987 0 8.06136 0 7.5C0 6.93864 0.167991 6.39013 0.482354 5.92505C0.796717 5.45997 1.24307 5.09961 1.76396 4.89034C2.28485 4.68108 2.85645 4.63248 3.4052 4.7508C3.95394 4.86913 4.45472 5.14897 4.84309 5.5543L9.41133 3.26408C9.30333 2.60037 9.43672 1.91994 9.7873 1.34612C10.1379 0.772309 10.6825 0.343098 11.3223 0.136299C11.9621 -0.0704994 12.6549 -0.041197 13.275 0.218894C13.8951 0.478986 14.4015 0.95265 14.7024 1.55402C15.0032 2.15539 15.0787 2.84466 14.915 3.49687C14.7514 4.14909 14.3594 4.72108 13.8103 5.10915C13.2611 5.49723 12.5911 5.6757 11.9217 5.61221C11.2522 5.54872 10.6277 5.24747 10.1613 4.76308L5.5893 7.04861C5.63746 7.3473 5.63746 7.65177 5.5893 7.95045L10.1613 10.236V10.2369ZM12.1872 3.74969C12.4358 3.74969 12.6742 3.65092 12.85 3.47511C13.0259 3.2993 13.1246 3.06085 13.1246 2.81222C13.1246 2.56359 13.0259 2.32515 12.85 2.14934C12.6742 1.97353 12.4358 1.87476 12.1872 1.87476C11.9385 1.87476 11.7001 1.97353 11.5243 2.14934C11.3485 2.32515 11.2497 2.56359 11.2497 2.81222C11.2497 3.06085 11.3485 3.2993 11.5243 3.47511C11.7001 3.65092 11.9385 3.74969 12.1872 3.74969ZM12.1872 13.1243C12.4358 13.1243 12.6742 13.0255 12.85 12.8497C13.0259 12.6739 13.1246 12.4355 13.1246 12.1868C13.1246 11.9382 13.0259 11.6998 12.85 11.524C12.6742 11.3481 12.4358 11.2494 12.1872 11.2494C11.9385 11.2494 11.7001 11.3481 11.5243 11.524C11.3485 11.6998 11.2497 11.9382 11.2497 12.1868C11.2497 12.4355 11.3485 12.6739 11.5243 12.8497C11.7001 13.0255 11.9385 13.1243 12.1872 13.1243ZM2.81254 8.43699C3.06117 8.43699 3.29962 8.33823 3.47543 8.16242C3.65124 7.98661 3.75001 7.74816 3.75001 7.49953C3.75001 7.2509 3.65124 7.01245 3.47543 6.83665C3.29962 6.66084 3.06117 6.56207 2.81254 6.56207C2.56391 6.56207 2.32547 6.66084 2.14966 6.83665C1.97385 7.01245 1.87508 7.2509 1.87508 7.49953C1.87508 7.74816 1.97385 7.98661 2.14966 8.16242C2.32547 8.33823 2.56391 8.43699 2.81254 8.43699Z" fill="white"/>
</svg>
