<svg width="18" height="18" viewBox="0 0 18 18" fill="none" xmlns="http://www.w3.org/2000/svg">
<path d="M5.29639 9.00005L8.07416 11.7778L12.7038 7.14819" stroke="#53B176" stroke-linecap="round" stroke-linejoin="round"/>
<path d="M0.666748 9.00008C0.666748 7.90573 0.882296 6.8221 1.30109 5.81105C1.71987 4.80001 2.3337 3.88135 3.10752 3.10752C3.88135 2.3337 4.80001 1.71987 5.81105 1.30109C6.8221 0.882296 7.90573 0.666748 9.00008 0.666748C10.0944 0.666748 11.1781 0.882296 12.1891 1.30109C13.2002 1.71987 14.1188 2.3337 14.8926 3.10752C15.6665 3.88135 16.2803 4.80001 16.6991 5.81105C17.1179 6.8221 17.3334 7.90573 17.3334 9.00008C17.3334 11.2102 16.4554 13.3298 14.8926 14.8926C13.3298 16.4554 11.2102 17.3334 9.00008 17.3334C6.78994 17.3334 4.67033 16.4554 3.10752 14.8926C1.54472 13.3298 0.666748 11.2102 0.666748 9.00008V9.00008Z" stroke="#53B176" stroke-linecap="round"/>
</svg>
