<svg width="18" height="19" viewBox="0 0 18 19" fill="none" xmlns="http://www.w3.org/2000/svg">
<path d="M5.29688 9.42387L8.07465 12.2017L12.7043 7.57202" stroke="#53B176" stroke-linecap="round" stroke-linejoin="round"/>
<path d="M0.666992 9.42385C0.666992 8.3295 0.88254 7.24587 1.30133 6.23482C1.72012 5.22377 2.33395 4.30511 3.10777 3.53129C3.88159 2.75747 4.80025 2.14364 5.8113 1.72485C6.82234 1.30606 7.90598 1.09052 9.00033 1.09052C10.0947 1.09052 11.1783 1.30606 12.1894 1.72485C13.2004 2.14364 14.1191 2.75747 14.8929 3.53129C15.6667 4.30511 16.2805 5.22377 16.6993 6.23482C17.1181 7.24587 17.3337 8.3295 17.3337 9.42385C17.3337 11.634 16.4557 13.7536 14.8929 15.3164C13.3301 16.8792 11.2105 17.7572 9.00033 17.7572C6.79019 17.7572 4.67057 16.8792 3.10777 15.3164C1.54497 13.7536 0.666992 11.634 0.666992 9.42385V9.42385Z" stroke="#53B176" stroke-linecap="round"/>
</svg>
