<svg width="12" height="12" viewBox="0 0 12 12" fill="none" xmlns="http://www.w3.org/2000/svg">
<path d="M3.77734 6.00003L5.44401 7.66669L8.22179 4.88892" stroke="#7C7C7C" stroke-linecap="round" stroke-linejoin="round"/>
<path d="M1 6C1 5.34339 1.12933 4.69321 1.3806 4.08658C1.63188 3.47996 2.00017 2.92876 2.46447 2.46447C2.92876 2.00017 3.47996 1.63188 4.08658 1.3806C4.69321 1.12933 5.34339 1 6 1C6.65661 1 7.30679 1.12933 7.91342 1.3806C8.52005 1.63188 9.07124 2.00017 9.53553 2.46447C9.99983 2.92876 10.3681 3.47996 10.6194 4.08658C10.8707 4.69321 11 5.34339 11 6C11 7.32608 10.4732 8.59785 9.53553 9.53553C8.59785 10.4732 7.32608 11 6 11C4.67392 11 3.40215 10.4732 2.46447 9.53553C1.52678 8.59785 1 7.32608 1 6V6Z" stroke="#7C7C7C" stroke-linecap="round"/>
</svg>
