<svg width="14" height="19" viewBox="0 0 14 19" fill="none" xmlns="http://www.w3.org/2000/svg">
<path d="M3.3573 9.56653C3.4741 9.5167 3.5997 9.49078 3.72669 9.49032C3.85367 9.48986 3.97946 9.51487 4.09662 9.56386C4.21377 9.61284 4.31992 9.68482 4.40878 9.77554C4.49764 9.86625 4.56741 9.97386 4.61397 10.092C4.66053 10.2101 4.68293 10.3364 4.67984 10.4634C4.67676 10.5903 4.64826 10.7154 4.59602 10.8311C4.54379 10.9469 4.46887 11.051 4.37572 11.1372C4.28256 11.2235 4.17305 11.2903 4.05365 11.3335C3.41861 11.5837 2.87359 12.0193 2.48948 12.5835C2.10537 13.1477 1.89997 13.8145 1.9 14.497V16.15C1.9 16.402 2.00009 16.6436 2.17825 16.8218C2.35641 16.9999 2.59804 17.1 2.85 17.1H10.45C10.702 17.1 10.9436 16.9999 11.1218 16.8218C11.2999 16.6436 11.4 16.402 11.4 16.15V14.5854C11.4001 13.8809 11.1861 13.1931 10.7864 12.613C10.3867 12.033 9.82012 11.5881 9.1618 11.3373C9.04166 11.2956 8.93112 11.2303 8.83672 11.145C8.74232 11.0598 8.66599 10.9566 8.61225 10.8413C8.55851 10.7261 8.52845 10.6012 8.52387 10.4741C8.51928 10.347 8.54026 10.2203 8.58555 10.1015C8.63084 9.98265 8.69953 9.87413 8.78754 9.78234C8.87555 9.69055 8.98109 9.61737 9.09791 9.56713C9.21473 9.51688 9.34045 9.49061 9.46761 9.48985C9.59477 9.4891 9.72079 9.51388 9.8382 9.56273C10.8562 9.9505 11.7324 10.6384 12.3506 11.5354C12.9688 12.4324 13.2999 13.496 13.3 14.5854V16.15C13.3 16.9059 12.9997 17.6308 12.4653 18.1653C11.9308 18.6998 11.2059 19 10.45 19H2.85C2.09413 19 1.36922 18.6998 0.834746 18.1653C0.300267 17.6308 0 16.9059 0 16.15V14.497C0.000130721 13.4332 0.320413 12.394 0.919183 11.5146C1.51795 10.6353 2.3675 9.95649 3.3573 9.56653ZM6.65 3.05176e-05C7.65782 3.05176e-05 8.62437 0.400387 9.33701 1.11302C10.0496 1.82566 10.45 2.79221 10.45 3.80003V5.70003C10.45 6.70785 10.0496 7.6744 9.33701 8.38704C8.62437 9.09967 7.65782 9.50003 6.65 9.50003C5.64218 9.50003 4.67563 9.09967 3.96299 8.38704C3.25036 7.6744 2.85 6.70785 2.85 5.70003V3.80003C2.85 2.79221 3.25036 1.82566 3.96299 1.11302C4.67563 0.400387 5.64218 3.05176e-05 6.65 3.05176e-05ZM6.65 1.90003C6.14609 1.90003 5.66282 2.10021 5.3065 2.45653C4.95018 2.81285 4.75 3.29612 4.75 3.80003V5.70003C4.75 6.20394 4.95018 6.68721 5.3065 7.04353C5.66282 7.39985 6.14609 7.60003 6.65 7.60003C7.15391 7.60003 7.63718 7.39985 7.9935 7.04353C8.34982 6.68721 8.55 6.20394 8.55 5.70003V3.80003C8.55 3.29612 8.34982 2.81285 7.9935 2.45653C7.63718 2.10021 7.15391 1.90003 6.65 1.90003Z" fill="#171726"/>
</svg>
