<svg width="20" height="20" viewBox="0 0 20 20" fill="none" xmlns="http://www.w3.org/2000/svg">
<path d="M6.35718 9.5665C6.47398 9.51666 6.59958 9.49075 6.72657 9.49029C6.85355 9.48983 6.97934 9.51484 7.09649 9.56382C7.21365 9.61281 7.3198 9.68479 7.40866 9.77551C7.49752 9.86622 7.56729 9.97383 7.61385 10.092C7.6604 10.2101 7.6828 10.3364 7.67972 10.4633C7.67664 10.5903 7.64814 10.7153 7.5959 10.8311C7.54366 10.9468 7.46875 11.0509 7.37559 11.1372C7.28244 11.2235 7.17292 11.2903 7.05353 11.3335C6.41849 11.5837 5.87346 12.0193 5.48936 12.5835C5.10525 13.1477 4.89985 13.8144 4.89988 14.497V16.15C4.89988 16.402 4.99997 16.6436 5.17813 16.8218C5.35629 16.9999 5.59792 17.1 5.84988 17.1H13.4499C13.7018 17.1 13.9435 16.9999 14.1216 16.8218C14.2998 16.6436 14.3999 16.402 14.3999 16.15V14.5854C14.4 13.8809 14.186 13.1931 13.7863 12.613C13.3866 12.0329 12.82 11.588 12.1617 11.3373C12.0415 11.2956 11.931 11.2302 11.8366 11.145C11.7422 11.0598 11.6659 10.9565 11.6121 10.8413C11.5584 10.726 11.5283 10.6012 11.5237 10.4741C11.5192 10.347 11.5401 10.2203 11.5854 10.1015C11.6307 9.98262 11.6994 9.8741 11.7874 9.78231C11.8754 9.69052 11.981 9.61734 12.0978 9.5671C12.2146 9.51685 12.3403 9.49058 12.4675 9.48982C12.5946 9.48907 12.7207 9.51385 12.8381 9.5627C13.8561 9.95047 14.7323 10.6384 15.3505 11.5354C15.9687 12.4323 16.2998 13.496 16.2999 14.5854V16.15C16.2999 16.9059 15.9996 17.6308 15.4651 18.1653C14.9307 18.6997 14.2057 19 13.4499 19H5.84988C5.09401 19 4.3691 18.6997 3.83462 18.1653C3.30015 17.6308 2.99988 16.9059 2.99988 16.15V14.497C3.00001 13.4331 3.32029 12.394 3.91906 11.5146C4.51783 10.6353 5.36737 9.95646 6.35718 9.5665ZM9.64988 0C10.6577 0 11.6242 0.400356 12.3369 1.11299C13.0495 1.82563 13.4499 2.79218 13.4499 3.8V5.7C13.4499 6.70782 13.0495 7.67437 12.3369 8.38701C11.6242 9.09964 10.6577 9.5 9.64988 9.5C8.64206 9.5 7.67551 9.09964 6.96287 8.38701C6.25023 7.67437 5.84988 6.70782 5.84988 5.7V3.8C5.84988 2.79218 6.25023 1.82563 6.96287 1.11299C7.67551 0.400356 8.64206 0 9.64988 0ZM9.64988 1.9C9.14597 1.9 8.66269 2.10018 8.30638 2.4565C7.95006 2.81282 7.74988 3.29609 7.74988 3.8V5.7C7.74988 6.20391 7.95006 6.68718 8.30638 7.0435C8.66269 7.39982 9.14597 7.6 9.64988 7.6C10.1538 7.6 10.6371 7.39982 10.9934 7.0435C11.3497 6.68718 11.5499 6.20391 11.5499 5.7V3.8C11.5499 3.29609 11.3497 2.81282 10.9934 2.4565C10.6371 2.10018 10.1538 1.9 9.64988 1.9Z" fill="#171726"/>
</svg>
