<svg xmlns="http://www.w3.org/2000/svg" width="19.048" height="19.048" viewBox="0 0 19.048 19.048">
  <path id="lm-share" d="M12.9,13a3.572,3.572,0,1,1-.952,1.9l-5.8-2.908a3.571,3.571,0,1,1,0-4.942l5.8-2.908a3.571,3.571,0,1,1,.952,1.9L7.1,8.951a3.6,3.6,0,0,1,0,1.145L12.9,13Zm2.573-8.238a1.191,1.191,0,1,0-.842-.349A1.191,1.191,0,0,0,15.476,4.762Zm0,11.9a1.191,1.191,0,1,0-.842-.349A1.191,1.191,0,0,0,15.476,16.667Zm-11.9-5.952a1.191,1.191,0,1,0-.842-.349A1.19,1.19,0,0,0,3.572,10.714Z" fill="#fff" fill-rule="evenodd"/>
</svg>
