<svg xmlns="http://www.w3.org/2000/svg" width="15" height="16.668" viewBox="0 0 15 16.668">
  <path id="lm-notifaction" d="M5.955,1.042a1.667,1.667,0,0,1,3.09,0,5.836,5.836,0,0,1,4.288,5.627v3.914l1.527,2.29a.833.833,0,0,1-.693,1.3H10.388a2.917,2.917,0,0,1-5.775,0H.833a.833.833,0,0,1-.693-1.3l1.527-2.29V6.668A5.836,5.836,0,0,1,5.955,1.042Zm.367,13.127a1.25,1.25,0,0,0,2.357,0H6.322ZM7.5,2.5A4.167,4.167,0,0,0,3.333,6.668v4.167a.833.833,0,0,1-.14.463l-.8,1.2H12.608l-.8-1.2a.833.833,0,0,1-.139-.463V6.668A4.167,4.167,0,0,0,7.5,2.5Z" fill="#fff"/>
</svg>
