<svg width="14" height="12" viewBox="0 0 14 12" fill="none" xmlns="http://www.w3.org/2000/svg">
<path d="M1.5 6.99896L11.3833 6.99896L8.35833 10.6323C8.21688 10.8025 8.14883 11.0219 8.16915 11.2422C8.18947 11.4626 8.29649 11.6658 8.46667 11.8073C8.63685 11.9487 8.85625 12.0168 9.0766 11.9965C9.29696 11.9762 9.50022 11.8691 9.64167 11.699L13.8083 6.69896C13.8364 6.65919 13.8614 6.61741 13.8833 6.57396C13.8833 6.53229 13.8833 6.50729 13.9417 6.46562C13.9794 6.37007 13.9992 6.26836 14 6.16562C13.9992 6.06288 13.9794 5.96117 13.9417 5.86562C13.9417 5.82396 13.9417 5.79896 13.8833 5.75729C13.8614 5.71384 13.8364 5.67206 13.8083 5.63229L9.64167 0.632291C9.56331 0.538222 9.4652 0.462572 9.35429 0.41072C9.24339 0.35887 9.12243 0.332092 9 0.33229C8.80529 0.331911 8.61659 0.399723 8.46667 0.523957C8.38228 0.593915 8.31253 0.679833 8.26141 0.776788C8.21028 0.873745 8.17878 0.979833 8.16872 1.08898C8.15866 1.19813 8.17022 1.30819 8.20276 1.41286C8.2353 1.51753 8.28816 1.61475 8.35833 1.69896L11.3833 5.33229L1.5 5.33229C1.27899 5.33229 1.06702 5.42009 0.910744 5.57637C0.754465 5.73265 0.666667 5.94461 0.666667 6.16562C0.666667 6.38664 0.754465 6.5986 0.910744 6.75488C1.06702 6.91116 1.27899 6.99896 1.5 6.99896Z" fill="white"/>
</svg>
