<svg xmlns="http://www.w3.org/2000/svg" width="15.278" height="19.444" viewBox="0 0 15.278 19.444">
  <g id="lm-address" transform="translate(0 -0.278)">
    <path id="Path_1" data-name="Path 1" d="M7.472,11.389a3.476,3.476,0,1,1,2.454-1.018A3.472,3.472,0,0,1,7.472,11.389Zm0-5.556a2.085,2.085,0,1,0,1.473.611A2.083,2.083,0,0,0,7.472,5.833Z" fill="#fff"/>
    <path id="Path_2" data-name="Path 2" d="M7.639,19.722,1.781,12.813q-.122-.156-.242-.313A7.562,7.562,0,0,1,0,7.917a7.639,7.639,0,0,1,15.278,0A7.559,7.559,0,0,1,13.74,12.5v0s-.208.274-.24.31ZM2.647,11.663s.163.214.2.26l4.792,5.652,4.8-5.66c.031-.038.193-.253.194-.254a6.182,6.182,0,0,0,1.258-3.744,6.25,6.25,0,1,0-12.5,0,6.184,6.184,0,0,0,1.259,3.746Z" fill="#fff"/>
  </g>
</svg>
