<svg width="7" height="12" viewBox="0 0 7 12" fill="none" xmlns="http://www.w3.org/2000/svg">
<path d="M1.16146 5.86174e-05C1.31088 -0.000377199 1.45852 0.0278821 1.59352 0.0827584C1.72853 0.137636 1.84747 0.217736 1.9416 0.317173L6.77247 5.45954C6.91958 5.6129 7 5.80526 7 6.00378C7 6.2023 6.91958 6.39466 6.77247 6.54801L1.77157 11.6904C1.6018 11.8654 1.35785 11.9755 1.09337 11.9964C0.828898 12.0173 0.56557 11.9473 0.361317 11.8018C0.157063 11.6563 0.028616 11.4473 0.004232 11.2206C-0.020152 10.994 0.061524 10.7684 0.231293 10.5933L4.7021 5.99949L0.381321 1.40564C0.259016 1.27984 0.181325 1.12664 0.157442 0.96419C0.133558 0.801734 0.16448 0.636815 0.246551 0.488948C0.328621 0.341081 0.458405 0.216455 0.620545 0.129815C0.782684 0.0431732 0.970393 -0.00185447 1.16146 5.86174e-05Z" fill="white"/>
</svg>
