<svg xmlns="http://www.w3.org/2000/svg" width="16.8" height="16.667" viewBox="0 0 16.8 16.667">
  <path id="lm-wishlist" d="M8.667,17A1.667,1.667,0,1,1,7,15.333,1.661,1.661,0,0,1,8.667,17Zm6.667-1.667A1.667,1.667,0,1,0,17,17,1.672,1.672,0,0,0,15.333,15.333ZM7.142,12.625l.025-.1.75-1.358h6.208a1.659,1.659,0,0,0,1.458-.858L18.8,4.467l-1.45-.8h-.008l-.917,1.667L14.125,9.5H8.275l-.108-.225L6.3,5.333,5.508,3.667,4.725,2H2V3.667H3.667l3,6.325L5.542,12.033a1.612,1.612,0,0,0-.208.8A1.667,1.667,0,0,0,7,14.5H17V12.833H7.35A.212.212,0,0,1,7.142,12.625Zm4.025-4.542-.5-.417C9,6.083,7.833,5.083,7.833,3.833A1.85,1.85,0,0,1,9.667,2a1.952,1.952,0,0,1,1.5.667A1.951,1.951,0,0,1,12.667,2,1.8,1.8,0,0,1,14.5,3.833c0,1.25-1.167,2.25-2.833,3.833Z" transform="translate(-2 -2)" fill="#fff"/>
</svg>
