<svg id="lm-transaction" xmlns="http://www.w3.org/2000/svg" width="20" height="15" viewBox="0 0 20 15">
  <path id="Path_11" data-name="Path 11" d="M17.5,1.25A1.25,1.25,0,0,1,18.75,2.5v10a1.25,1.25,0,0,1-1.25,1.25H2.5A1.25,1.25,0,0,1,1.25,12.5V2.5A1.25,1.25,0,0,1,2.5,1.25ZM2.5,0A2.5,2.5,0,0,0,0,2.5v10A2.5,2.5,0,0,0,2.5,15h15A2.5,2.5,0,0,0,20,12.5V2.5A2.5,2.5,0,0,0,17.5,0Z" fill="#fff"/>
  <path id="Path_12" data-name="Path 12" d="M2.5,4.375a.625.625,0,0,1,.625-.625h2.5a.625.625,0,0,1,.625.625v1.25a.625.625,0,0,1-.625.625h-2.5A.625.625,0,0,1,2.5,5.625Zm0,3.75A.625.625,0,0,1,3.125,7.5h6.25a.625.625,0,0,1,0,1.25H3.125A.625.625,0,0,1,2.5,8.125Zm0,2.5A.625.625,0,0,1,3.125,10h1.25a.625.625,0,0,1,0,1.25H3.125a.625.625,0,0,1-.625-.625Zm3.75,0A.625.625,0,0,1,6.875,10h1.25a.625.625,0,0,1,0,1.25H6.875a.625.625,0,0,1-.625-.625Zm3.75,0A.625.625,0,0,1,10.625,10h1.25a.625.625,0,0,1,0,1.25h-1.25A.625.625,0,0,1,10,10.625Zm3.75,0A.625.625,0,0,1,14.375,10h1.25a.625.625,0,0,1,0,1.25h-1.25a.625.625,0,0,1-.625-.625Z" fill="#fff"/>
</svg>
