<svg id="lm-signout" xmlns="http://www.w3.org/2000/svg" width="19.259" height="17" viewBox="0 0 19.259 17">
  <path id="Path_9" data-name="Path 9" d="M0,8.373l4.63,3.373V9.216h8.333V7.53H4.63V5Z" fill="#fff"/>
  <path id="Path_10" data-name="Path 10" d="M10.472,0A8.983,8.983,0,0,0,7.108.643,8.75,8.75,0,0,0,4.259,2.49L5.64,3.826a7,7,0,0,1,9.665,0,6.458,6.458,0,0,1,0,9.349,7,7,0,0,1-9.665,0L4.259,14.51a9,9,0,0,0,12.426,0,8.3,8.3,0,0,0,0-12.02A8.75,8.75,0,0,0,13.837.643,8.983,8.983,0,0,0,10.472,0Z" fill="#fff"/>
</svg>
