<svg xmlns="http://www.w3.org/2000/svg" width="13.3" height="19" viewBox="0 0 13.3 19">
  <path id="lm-user" d="M6.357,9.566a.95.95,0,1,1,.7,1.767A3.4,3.4,0,0,0,4.9,14.5v1.65a.95.95,0,0,0,.95.95h7.6a.95.95,0,0,0,.95-.95V14.585a3.475,3.475,0,0,0-2.239-3.248.95.95,0,1,1,.677-1.775A5.375,5.375,0,0,1,16.3,14.585V16.15A2.85,2.85,0,0,1,13.45,19H5.85A2.85,2.85,0,0,1,3,16.15V14.5A5.3,5.3,0,0,1,6.357,9.566ZM9.65,0a3.8,3.8,0,0,1,3.8,3.8V5.7a3.8,3.8,0,1,1-7.6,0V3.8A3.8,3.8,0,0,1,9.65,0Zm0,1.9a1.9,1.9,0,0,0-1.9,1.9V5.7a1.9,1.9,0,1,0,3.8,0V3.8a1.9,1.9,0,0,0-1.9-1.9Z" transform="translate(-3)" fill="#fff"/>
</svg>
