<svg width="17" height="16" viewBox="0 0 17 16" fill="none" xmlns="http://www.w3.org/2000/svg">
<path d="M8.41667 13.8043L8.33333 13.8931L8.24167 13.8043C4.28333 9.97818 1.66667 7.44813 1.66667 4.88256C1.66667 3.10708 2.91667 1.77548 4.58333 1.77548C5.86667 1.77548 7.11667 2.66322 7.55833 3.87054H9.10833C9.55 2.66322 10.8 1.77548 12.0833 1.77548C13.75 1.77548 15 3.10708 15 4.88256C15 7.44813 12.3833 9.97818 8.41667 13.8043ZM12.0833 0C10.6333 0 9.24167 0.719068 8.33333 1.8465C7.425 0.719068 6.03333 0 4.58333 0C2.01667 0 0 2.13945 0 4.88256C0 8.22934 2.83333 10.9724 7.125 15.1182C7.125 15.1182 7.66667 15.8575 8.33333 15.8575C9 15.8575 9.54167 15.1182 9.54167 15.1182C13.8333 10.9724 16.6667 8.22934 16.6667 4.88256C16.6667 2.13945 14.65 0 12.0833 0Z" fill="#171726"/>
</svg>
