<svg width="20" height="20" viewBox="0 0 20 20" fill="none" xmlns="http://www.w3.org/2000/svg">
<path d="M10.4167 15.8043L10.3333 15.8931L10.2417 15.8043C6.28333 11.9782 3.66667 9.44813 3.66667 6.88256C3.66667 5.10708 4.91667 3.77548 6.58333 3.77548C7.86667 3.77548 9.11667 4.66322 9.55833 5.87054H11.1083C11.55 4.66322 12.8 3.77548 14.0833 3.77548C15.75 3.77548 17 5.10708 17 6.88256C17 9.44813 14.3833 11.9782 10.4167 15.8043ZM14.0833 2C12.6333 2 11.2417 2.71907 10.3333 3.8465C9.425 2.71907 8.03333 2 6.58333 2C4.01667 2 2 4.13945 2 6.88256C2 10.2293 4.83333 12.9724 9.125 17.1182C9.125 17.1182 9.66667 17.8575 10.3333 17.8575C11 17.8575 11.5417 17.1182 11.5417 17.1182C15.8333 12.9724 18.6667 10.2293 18.6667 6.88256C18.6667 4.13945 16.65 2 14.0833 2Z" fill="#171726"/>
</svg>
